<svg width="70" height="70" viewBox="0 0 70 70" fill="none" xmlns="http://www.w3.org/2000/svg">
<circle cx="35" cy="35" r="35" fill="white"/>
<path fill-rule="evenodd" clip-rule="evenodd" d="M26.4977 23C26.4977 18.0294 30.5272 14 35.4977 14C40.4683 14 44.4977 18.0294 44.4977 23C44.4977 27.9706 40.4683 32 35.4977 32C30.5272 32 26.4977 27.9706 26.4977 23Z" fill="url(#paint0_linear_342_324)"/>
<path fill-rule="evenodd" clip-rule="evenodd" d="M19.0002 51.2107C19.1549 42.2311 26.4817 35 35.4977 35C44.514 35 51.8409 42.2315 51.9953 51.2113C52.0055 51.8068 51.6624 52.352 51.121 52.6004C46.3632 54.7836 41.0708 56 35.4984 56C29.9255 56 24.6326 54.7834 19.8744 52.5998C19.333 52.3514 18.99 51.8062 19.0002 51.2107Z" fill="url(#paint1_linear_342_324)"/>
<defs>
<linearGradient id="paint0_linear_342_324" x1="19" y1="56" x2="52.0168" y2="55.9664" gradientUnits="userSpaceOnUse">
<stop stop-color="#5C27FE"/>
<stop offset="1" stop-color="#C165DD"/>
</linearGradient>
<linearGradient id="paint1_linear_342_324" x1="19" y1="56" x2="52.0168" y2="55.9664" gradientUnits="userSpaceOnUse">
<stop stop-color="#5C27FE"/>
<stop offset="1" stop-color="#C165DD"/>
</linearGradient>
</defs>
</svg>
