<svg width="40" height="40" viewBox="0 0 40 40" fill="none" xmlns="http://www.w3.org/2000/svg">
<rect width="39.7093" height="40" rx="10" fill="black" fill-opacity="0.41"/>
<path d="M19.8547 11.8072C22.486 11.8072 22.8449 11.8072 23.9213 11.8072C24.8782 11.8072 25.3566 12.0482 25.7154 12.1687C26.1938 12.4096 26.5526 12.5301 26.9115 12.8916C27.2703 13.253 27.5095 13.6145 27.6291 14.0964C27.7487 14.4578 27.8683 14.9398 27.9879 15.9036C27.9879 16.988 27.9879 17.2289 27.9879 20C27.9879 22.7711 27.9879 23.0121 27.9879 24.0964C27.9879 25.0602 27.7487 25.5422 27.6291 25.9036C27.3899 26.3855 27.2703 26.747 26.9115 27.1084C26.5526 27.4699 26.1938 27.7108 25.7154 27.8313C25.3566 27.9518 24.8782 28.0723 23.9213 28.1928C22.8449 28.1928 22.6056 28.1928 19.8547 28.1928C17.1037 28.1928 16.8645 28.1928 15.7881 28.1928C14.8312 28.1928 14.3528 27.9518 13.994 27.8313C13.5156 27.5904 13.1567 27.4699 12.7979 27.1084C12.4391 26.747 12.1999 26.3855 12.0803 25.9036C11.9607 25.5422 11.8411 25.0602 11.7215 24.0964C11.7215 23.0121 11.7215 22.7711 11.7215 20C11.7215 17.2289 11.7215 16.988 11.7215 15.9036C11.7215 14.9398 11.9607 14.4578 12.0803 14.0964C12.3195 13.6145 12.4391 13.253 12.7979 12.8916C13.1567 12.5301 13.5156 12.2892 13.994 12.1687C14.3528 12.0482 14.8312 11.9277 15.7881 11.8072C16.8645 11.8072 17.2234 11.8072 19.8547 11.8072ZM19.8547 10C17.1037 10 16.8645 10 15.7881 10C14.7116 10 13.994 10.241 13.396 10.4819C12.7979 10.7229 12.1999 11.0843 11.6019 11.6867C11.0038 12.2892 10.7646 12.7711 10.4058 13.494C10.1666 14.0964 10.047 14.8193 9.92737 15.9036C9.92737 16.988 9.92737 17.3494 9.92737 20C9.92737 22.7711 9.92737 23.0121 9.92737 24.0964C9.92737 25.1807 10.1666 25.9036 10.4058 26.506C10.645 27.1084 11.0038 27.7108 11.6019 28.3133C12.1999 28.9157 12.6783 29.1566 13.396 29.5181C13.994 29.759 14.7116 29.8795 15.7881 30C16.8645 30 17.2234 30 19.8547 30C22.486 30 22.8449 30 23.9213 30C24.9978 30 25.7154 29.759 26.3134 29.5181C26.9115 29.2771 27.5095 28.9157 28.1075 28.3133C28.7056 27.7108 28.9448 27.2289 29.3036 26.506C29.5428 25.9036 29.6624 25.1807 29.782 24.0964C29.782 23.0121 29.782 22.6506 29.782 20C29.782 17.3494 29.782 16.988 29.782 15.9036C29.782 14.8193 29.5428 14.0964 29.3036 13.494C29.0644 12.8916 28.7056 12.2892 28.1075 11.6867C27.5095 11.0843 27.0311 10.8434 26.3134 10.4819C25.7154 10.241 24.9978 10.1205 23.9213 10C22.8449 10 22.6056 10 19.8547 10Z" fill="white"/>
<path d="M19.8547 14.8193C16.9841 14.8193 14.7116 17.1084 14.7116 20C14.7116 22.8916 16.9841 25.1807 19.8547 25.1807C22.7252 25.1807 24.9978 22.8916 24.9978 20C24.9978 17.1084 22.7252 14.8193 19.8547 14.8193ZM19.8547 23.3735C18.0606 23.3735 16.5057 21.9277 16.5057 20C16.5057 18.1928 17.941 16.6265 19.8547 16.6265C21.6488 16.6265 23.2037 18.0723 23.2037 20C23.2037 21.8072 21.6488 23.3735 19.8547 23.3735Z" fill="white"/>
<path d="M25.1174 15.9036C25.7779 15.9036 26.3134 15.3642 26.3134 14.6988C26.3134 14.0334 25.7779 13.494 25.1174 13.494C24.4568 13.494 23.9213 14.0334 23.9213 14.6988C23.9213 15.3642 24.4568 15.9036 25.1174 15.9036Z" fill="white"/>
</svg>
