<svg width="203" height="49" viewBox="0 0 203 49" fill="none" xmlns="http://www.w3.org/2000/svg">
<g clip-path="url(#clip0_53_49)">
<path d="M34.9764 47.9333C34.9764 48.0365 35.0105 48.0021 34.9081 48.0021C34.9081 47.7612 34.874 48.0021 34.9764 47.9333ZM47.1243 0H47.2949C47.6703 0.0344101 47.9433 0.309691 48.0115 0.653792C48.1139 1.13553 47.9774 0.825843 48.2162 1.20435C48.421 1.51405 48.3869 1.99579 48.0797 2.27107C47.7044 2.61517 47.1925 2.27107 46.2712 2.68399C45.9982 2.82163 46.1006 2.85604 45.93 3.0625C45.7935 3.23455 45.6911 3.26896 45.5205 3.4066C45.2134 3.61306 45.111 3.92275 44.8039 4.12921C44.6674 4.23244 44.4968 4.30126 44.3603 4.40449C43.7461 4.81742 43.6096 4.92065 42.7224 4.92065C42.7906 5.23034 43.1319 5.67767 43.2683 6.26264C43.6778 8.25843 41.3233 9.94452 39.31 8.05197C39.0029 7.74228 38.7299 7.36376 38.4228 7.05407C37.1944 5.88413 36.5119 6.84761 36.8532 7.91433C36.9896 8.39607 37.2626 8.77458 37.5015 9.15309C37.7404 9.5316 38.0133 9.8757 38.2863 10.2542L41.9034 14.177C42.074 14.349 42.1764 14.4867 42.347 14.6931C42.7906 15.1749 43.2342 15.7254 43.6096 16.276C43.7461 16.4824 43.8484 16.6201 43.9849 16.8265C44.9745 18.4438 45.5546 20.0267 44.9404 21.9537C43.9508 25.1882 40.4361 26.8399 37.1944 25.7388C37.0238 25.6699 36.6143 25.4979 36.5119 25.5323L35.2152 26.1173C33.7138 26.6678 31.9053 26.8743 30.3356 26.427C29.8579 26.2893 29.2778 25.9796 29.0389 25.9108C28.8 26.3237 28.3564 26.6678 27.947 26.9087C26.0702 28.1131 24.5346 27.941 23.3062 28.526C23.9886 29.8336 25.8654 30.1433 26.9574 29.283C27.3669 28.9389 27.401 28.3195 27.947 28.2163C29.5166 27.941 29.1754 30.5906 27.1962 31.6229C25.8313 32.3111 24.1934 32.2423 22.8626 31.4853C21.9754 31.0035 21.5659 30.4185 21.3611 30.2465C21.1564 30.6938 21.0882 31.4853 21.2588 32.0358C21.9071 34.066 25.183 33.3778 26.7868 33.0681C28.5271 32.724 30.1991 32.2079 31.9394 31.967C32.8607 31.8294 34.0209 31.7605 34.9081 31.8638C36.5119 32.0702 38.0816 32.7584 38.8323 34.2381C39.4124 35.3736 39.4465 36.4747 39.0712 37.6791C38.6958 38.7802 38.0475 39.3996 37.092 39.8813C37.3309 40.2254 37.5015 40.3287 37.638 40.8104C37.911 41.6362 37.6039 42.3933 37.7062 42.7374C37.8086 42.9782 37.8427 43.0126 37.8769 43.3223C37.9451 43.8385 37.4674 45.0428 37.1603 45.4213C36.9555 45.6622 37.0238 45.559 36.8873 45.9031C36.7167 46.316 36.4778 46.3848 36.4437 46.8666C36.4095 47.0386 36.3413 47.3139 36.3754 47.486C36.4437 47.8645 36.7167 48.1742 36.4437 48.6215C36.3413 48.828 36.1366 49 35.8636 49.0344H35.6588C35.5906 49.0344 35.5223 49 35.4541 48.9656C35.0787 48.7935 35.3858 48.828 34.9422 48.8968C34.7716 48.9312 34.5669 48.8624 34.4304 48.7591C34.1574 48.5871 33.9527 48.1742 34.1574 47.7268C34.3621 47.2795 34.4986 47.2451 34.601 46.7289C34.6351 46.4192 34.7034 46.3504 34.601 46.144C34.4986 45.9375 34.4304 45.8343 34.4304 45.5934C34.3963 45.1805 34.4304 45.3181 34.2939 44.974C34.1574 44.6299 34.1574 44.1482 34.1233 43.8385C34.0892 43.5976 34.0892 43.3567 34.1233 43.1159C34.1574 42.6685 34.3963 42.4621 34.601 42.1524C34.1233 42.2556 33.4749 42.118 33.0655 41.9803C32.656 41.8427 32.2465 41.533 32.0418 41.1889C31.4617 40.3631 31.564 39.1587 32.1783 38.5049C33.4067 37.1973 35.693 37.6103 35.8636 36.75C36.0001 36.0962 35.5906 35.8209 35.1811 35.6489C33.7479 35.0983 30.2673 36.0618 29.0048 36.3715C26.6503 36.9565 25.183 37.335 22.7602 37.335C18.6313 37.335 15.9696 32.9305 17.9147 28.9389C18.29 28.1475 18.9043 27.4593 19.4844 26.9087C19.655 26.7711 19.8938 26.6678 19.928 26.427C20.0645 25.5323 19.8938 25.3947 20.2692 24.0871C20.5422 23.1236 20.8834 22.3322 21.3953 21.6096C21.6 21.2999 21.9412 20.8525 22.2142 20.6117C22.4531 20.4052 22.9649 19.9235 23.2379 19.8546C23.2379 19.6138 23.1014 19.3041 23.0673 19.0288C22.7943 17.6524 23.1356 16.1728 23.545 14.934C23.6474 14.5899 23.818 13.6608 23.9204 13.4199C23.3744 13.4199 23.2038 13.4888 22.7943 13.6608C22.4872 13.8329 22.2142 14.0049 22.0095 14.2458C20.6787 15.8975 21.8047 16.8954 21.8389 17.2739C21.9071 17.6868 21.6 18.0309 21.3611 18.1341C20.6787 18.4438 19.928 17.5492 19.6891 17.2051C19.3137 16.5857 19.1431 15.9319 19.2796 15.0028C19.4844 13.5232 20.2351 12.4565 21.3953 11.665C21.7706 11.4242 22.7602 10.908 23.3062 10.908C23.2038 10.4951 22.419 10.0822 22.0436 9.94452C21.3611 9.70365 20.6787 9.97893 20.3033 10.2886C19.5185 10.9424 18.9725 11.9747 18.5971 13.0414C17.8123 15.2437 17.2663 17.618 16.345 19.7858C16.0038 20.6117 15.6284 21.2654 15.1166 21.9537C14.6388 22.6074 14.0587 23.1236 13.3763 23.5365C11.1582 24.8441 8.32601 23.6397 7.50705 21.6096C7.23406 20.9213 7.19994 20.6461 7.19994 19.717C6.44922 20.0955 5.49377 19.6138 4.94779 19.1664C4.19708 18.5471 3.88997 19.0976 3.10513 17.9965C3.00276 17.8244 2.86627 17.7556 2.72977 17.5836C2.52503 17.3083 2.42266 16.861 2.1838 16.5857C1.77432 16.1383 2.14968 16.1728 1.56958 15.691C0.784741 15.0716 0.443508 15.4501 0.102274 14.8996C-0.13659 14.4522 -9.63416e-05 14.1081 0.307014 13.8329C0.409384 13.764 0.375261 13.7985 0.443508 13.764C0.682371 13.5576 0.614124 13.2135 1.02361 13.007C1.94494 12.5941 2.08143 13.6952 2.49091 14.0393C2.72977 14.2458 2.86627 14.4178 3.2075 14.4522C3.68523 14.4867 3.82172 14.6931 4.40182 14.7963C4.77718 14.8652 5.63026 15.3125 5.93737 15.519C6.27861 15.7598 6.34685 15.9663 6.55159 16.3448C6.82458 16.1383 7.30231 14.6931 8.70137 14.6587C9.92981 14.6243 10.6464 15.2437 10.9535 16.1728C11.5336 17.8244 9.52033 20.1643 11.0559 20.474C12.8303 20.8525 14.3317 14.5555 14.7753 12.9038C14.9118 12.4565 15.0824 11.9403 15.2531 11.493C16.1403 8.80899 17.7441 5.95295 20.9175 5.81531C21.1564 5.81531 21.1905 5.7809 21.327 5.7809L22.5555 5.95295C24.9782 6.57233 26.5479 8.36166 27.1621 10.7704C27.2986 11.2865 27.1621 11.4586 27.6398 11.7338C28.3223 12.1468 28.8683 12.6973 29.4143 13.2479C29.892 13.7296 30.2332 14.3146 30.5745 14.8996C31.0863 15.7254 31.3934 16.8265 31.4275 17.8244C32.0418 17.9621 32.5195 18.1341 33.0655 18.4438C34.0209 18.96 34.7034 19.7514 35.4541 20.5084C35.693 20.7493 36.2731 21.4719 36.5802 21.5751C36.6143 21.4031 36.7167 21.2999 36.7849 21.0934C37.1944 19.889 36.546 18.5126 35.42 18.0309C34.9081 17.8244 34.6693 17.9965 34.328 17.8933C33.3726 17.5836 33.5091 16.2416 35.2494 16.0695C37.3309 15.8631 39.037 18.0309 39.31 20.0267C39.3783 20.6461 39.31 21.2999 39.1735 21.8504C39.1394 22.0225 39.0712 22.1945 39.0712 22.3666C39.6171 22.3666 40.3679 21.9192 40.6067 21.6096C42.0058 19.9235 39.8901 17.618 38.8323 16.3448L37.7404 15.1749C37.1261 14.5555 35.9318 13.2135 35.3517 12.4909C35.2494 12.3876 35.2152 12.3188 35.1129 12.2156C33.9868 10.736 32.3147 8.05197 33.5432 5.57444C34.328 3.99157 36.0683 3.02809 37.8769 3.26896C38.9347 3.4066 39.0712 3.78511 39.4807 3.88834C39.6513 3.13132 40.1972 2.64958 40.8456 2.30548C41.7328 1.85815 41.0845 2.40871 41.7328 1.75492C42.0399 1.44522 42.1764 1.34199 42.6541 1.23876C42.8589 1.20435 43.0977 1.16994 43.2683 1.13553C43.712 1.06671 44.8722 1.06671 45.2475 1.10112C45.4864 1.13553 45.657 1.0323 45.8276 0.963483C46.6466 0.516152 46.6466 0.0344101 47.1243 0ZM35.693 48.0365C35.7271 48.1053 35.7612 48.0709 35.693 48.1742L35.6247 48.0365L35.3858 47.5548C35.1129 47.6924 35.1811 47.7956 34.9422 47.9333C35.1811 47.2451 35.2835 47.7956 35.4541 46.0063C35.3176 45.8343 35.1811 45.7999 35.147 45.4902C35.0787 44.802 34.874 44.6643 34.874 44.0794C34.874 43.7697 34.8058 43.632 34.8399 43.3567C34.874 42.8062 35.3176 42.6685 35.42 42.2556C35.7953 40.6383 32.929 42.2212 32.4171 40.3631C31.837 38.1952 35.1129 38.5393 36.1366 37.6447C36.8532 37.0597 36.6484 35.8897 36.0683 35.3392C34.9081 34.2725 32.0418 34.823 30.5403 35.1671C27.3669 35.8897 22.4531 37.7135 19.7915 35.5456C18.7336 34.6854 17.6758 32.9993 18.0512 30.7971C18.29 29.3174 19.4502 27.5969 20.7128 26.9087C20.6104 25.2914 20.9858 23.915 21.6341 22.6763C22.1801 21.644 23.1356 20.474 24.2957 20.1643C24.2275 19.9235 24.0228 19.717 23.9204 19.3729C23.5792 18.4438 23.6815 17.3427 23.8863 16.448C24.1593 15.2093 24.7052 14.1426 24.7052 12.8006C24.4664 12.4565 23.0332 12.6973 22.692 12.835C22.0777 13.0758 21.6341 13.4544 21.327 13.8329C20.9858 14.2802 20.7128 14.7619 20.6104 15.4501C20.4739 16.4136 20.7128 16.6201 20.9858 17.3771C20.7469 17.2739 20.4398 16.8954 20.3033 16.6545C19.3137 14.7619 21.054 11.5618 24.5346 11.5618C24.5346 10.6327 23.1356 9.32514 22.0095 9.11868C20.3374 8.77458 19.382 10.0133 18.8019 10.8392C16.6862 13.8673 16.2426 23.3989 11.2606 23.3301C9.75919 23.2956 8.70137 22.3322 8.25776 21.3343C7.95065 20.6461 7.95065 19.9923 8.12127 19.2008C8.32601 18.2718 8.80374 17.6524 8.53075 17.4115C8.29189 17.4459 8.22364 17.6524 8.12127 17.8588C7.84828 18.4438 7.4388 18.96 6.68809 19.0632C6.10799 19.132 5.73263 18.8567 5.42552 18.6159C5.2549 18.4782 5.15253 18.3062 4.91367 18.2374C4.40182 18.0653 4.06059 18.2029 3.75348 17.6524C3.58286 17.3771 3.51461 17.3771 3.34399 17.1706C3.2075 16.9986 3.17338 16.7921 3.07101 16.5513C2.93451 16.3104 2.83214 16.2416 2.72977 16.0695C2.49091 15.691 2.83214 15.7254 2.45679 15.4501C1.77432 14.934 1.67195 14.6931 0.784741 14.5211L1.46721 14.4867L1.36484 13.7985C1.53546 14.2802 1.7402 14.4867 2.14968 14.7963C3.17338 15.6566 2.69565 15.106 3.30987 15.2781C3.54873 15.3469 3.65111 15.4846 3.99234 15.5534C4.29945 15.6222 4.47007 15.5878 4.70893 15.7598L5.28903 16.0695C5.9715 16.4136 5.835 17.4803 6.61984 17.4459C7.09757 17.4459 7.23406 16.861 7.47292 16.4824C7.95065 15.7254 8.73549 15.106 9.79331 15.8287C10.6805 16.448 10.1345 17.79 9.89568 18.6503C9.52033 19.889 9.58857 20.7149 10.5782 21.1966C12.3867 22.0569 13.6834 19.132 14.1952 17.8244C15.4237 14.4522 16.1744 9.39396 18.5289 7.60464C20.0986 6.43469 22.2825 6.26264 24.0569 7.39817C24.8076 7.87992 25.3536 8.46489 25.7972 9.25632C26.6161 10.7015 26.4114 11.9059 26.7526 12.1124C27.2986 12.4909 27.5375 12.4909 28.2199 13.1103C29.7214 14.4522 30.8816 16.276 30.6086 18.6159C32.2465 18.5126 33.3384 19.4761 34.1233 20.1987C34.3963 20.4396 34.5328 20.6461 34.7375 20.8869C35.6247 21.816 35.693 21.8848 36.7167 22.6419C37.0579 22.401 37.4674 21.6784 37.6039 21.0934C37.9451 19.7858 37.365 18.4438 36.3754 17.6524C35.7271 17.1362 35.3176 17.1706 34.5669 17.0674C36.2731 16.0351 38.7299 18.2718 38.4911 20.9558C38.4228 21.9192 38.1498 22.3322 37.8086 23.0548C38.7299 23.5709 40.7091 22.8139 41.3916 21.7816C42.1764 20.5772 41.6646 18.9944 41.0162 17.9277C40.6067 17.2739 40.129 16.6201 39.6513 16.1039L36.9555 13.1447C35.9659 12.1468 34.9422 10.8048 34.328 9.42837C32.8266 6.02177 35.3176 3.4066 37.9792 4.02598C39.5489 4.40449 40.2655 6.02177 40.5726 6.15941C41.2209 6.43469 40.402 5.23034 40.3337 5.02388C39.9925 4.0948 40.3337 3.26896 41.2551 2.89045C42.0399 2.58076 41.6646 2.89045 42.2446 2.23666C42.5518 1.89256 42.9612 1.89256 43.4731 1.78933C43.8143 1.72051 43.9508 1.78933 44.2579 1.82374C44.5309 1.85815 44.7357 1.72051 44.9745 1.75492C45.3158 1.78933 45.1793 1.96138 45.5887 1.82374C45.8959 1.6861 46.5101 1.51405 46.7489 1.30758C46.9196 1.16994 46.9537 1.0323 47.1243 0.894663C47.056 1.10112 46.9196 1.23876 46.8513 1.41081C46.9878 1.51405 47.2608 1.54845 47.4655 1.58287C46.9196 1.6861 46.9537 1.47963 46.3053 1.75492C45.9982 1.89256 45.657 1.96138 45.4181 2.13343C45.3158 2.44312 45.3499 2.51194 45.0769 2.68399C44.7015 2.92486 44.5309 3.33778 44.1556 3.54424C44.0532 3.61306 43.9508 3.61306 43.8826 3.68188C43.7461 3.7507 43.7461 3.78511 43.6437 3.88834C43.0977 4.33567 42.7224 3.92275 42.1764 4.0948C41.6987 4.23244 41.5622 4.71419 41.8352 5.16152C42.3129 5.91854 42.7906 6.88202 42.0399 7.67345C41.2209 8.53371 40.1972 7.94874 39.6513 7.36376C39.2418 6.88202 38.5252 5.98736 37.7404 5.74649C36.7508 5.47121 35.8636 6.36587 35.8636 7.29494C35.8636 8.8434 37.3991 10.736 38.3887 11.7338C38.5252 11.8715 38.6617 12.0435 38.7982 12.2156C38.9347 12.3876 39.1053 12.4909 39.2418 12.6629C39.8219 13.2823 40.8797 14.3146 41.3574 14.934L42.1423 15.8631C43.0636 16.9642 44.0532 18.375 44.2238 19.889C44.4968 22.1945 43.1319 23.8118 41.9034 24.5688C40.675 25.3258 39.0712 25.4979 37.6039 25.1194C37.1603 25.0162 36.6825 24.7409 36.3072 24.6721C36.0342 24.8097 35.8636 24.9817 35.5223 25.1538C35.2494 25.2914 34.9081 25.4291 34.6351 25.5323C32.9972 26.0829 31.0181 26.1861 29.4484 25.3603C29.1754 25.2226 28.9365 25.0162 28.6977 24.8785C28.0493 26.6334 25.6607 27.0808 23.9886 27.5281C23.1014 27.769 22.6578 28.0442 22.1801 28.1819C22.2483 28.526 22.3848 28.8357 22.5555 29.111C23.0673 29.9368 23.6815 30.4529 24.7735 30.625C26.1725 30.8659 27.401 30.3153 28.0493 29.111C28.1858 30.8315 25.9337 31.5197 24.5687 31.3476C22.9991 31.1412 22.0436 30.1777 21.2588 28.9389C20.5422 29.6271 19.9621 31.1412 20.4398 32.4831C21.7706 36.0274 28.527 33.4466 31.2569 32.9649C34.1915 32.4487 37.0579 32.6208 38.1157 34.9607C38.6617 36.1994 38.2863 37.8855 37.5356 38.6081C36.0001 40.0534 34.4986 39.5028 34.2598 39.9846C34.3963 40.3287 34.9081 40.1222 35.3176 40.1566C36.5119 40.2598 37.0238 41.1545 36.7167 42.4621C36.6143 42.9094 36.9214 43.0815 36.9214 43.5288C36.9214 43.8385 36.7167 44.217 36.6143 44.5611C36.4778 44.974 36.2731 45.0428 36.1024 45.3525C35.8295 45.9375 36.1024 45.731 35.5565 46.1096C35.5223 46.4881 35.4541 46.7978 35.42 47.1763C35.4882 47.5892 35.6247 47.5892 35.693 48.0365ZM197.062 22.5042H189.828V14.9684H197.37C199.144 14.9684 200.509 16.3448 200.509 18.0309C200.509 19.5449 200.679 20.6117 199.519 21.7128C198.905 22.2289 198.188 22.5042 197.062 22.5042ZM187.303 12.6285V34.8574C187.303 34.9951 187.337 35.0295 187.474 35.0295H189.828V25.0506H194.298C194.469 25.0506 194.947 25.9452 195.083 26.2205L197.95 31.2444C198.223 31.6573 198.427 32.0702 198.666 32.5176L200.134 35.0295H203C202.079 33.2746 200.748 31.1756 199.826 29.4551C199.553 28.9045 197.37 25.257 197.335 25.0506C197.677 25.0506 198.223 24.9817 198.564 24.9129C198.973 24.8441 199.315 24.7065 199.622 24.5688C201.601 23.743 203 21.644 203 19.4761V18.0653C203 15.0028 200.509 12.4909 197.472 12.4909H187.474C187.371 12.4565 187.303 12.4909 187.303 12.6285ZM72.1709 22.5042H64.9367V14.9684H72.5462C74.1841 14.9684 75.5832 16.3448 75.5832 17.79C75.5832 19.2353 75.7879 20.7493 74.5595 21.7128C74.2183 21.9881 74.0135 22.1257 73.5699 22.2978C73.1604 22.4354 72.6827 22.5042 72.1709 22.5042ZM62.4457 34.9951H64.9367V25.0162H69.4069C69.5775 25.0162 69.6457 25.257 69.8163 25.5667C69.9528 25.8076 70.0552 25.9452 70.1917 26.1861C70.7377 27.184 71.4543 28.3195 71.9661 29.3174L75.2078 34.9951H78.0742C78.006 34.6854 76.914 32.9305 76.6751 32.5176L74.9007 29.4206C74.15 28.0787 73.0581 26.3237 72.3756 25.0162C73.1604 25.0162 74.0818 24.8441 74.6619 24.5688C75.0031 24.4312 75.2761 24.2935 75.5491 24.0871C76.2998 23.5709 77.0846 22.7451 77.4941 21.9537C78.2448 20.5084 78.0742 19.2697 78.0742 17.6524C78.0742 16.6201 77.5965 15.4846 77.0164 14.7275C75.9927 13.3167 74.423 12.4565 72.6145 12.4565H62.4457V34.9951ZM124.891 14.9684H136.357L132.057 22.4698C130.624 24.9129 129.191 27.5969 127.758 29.9712C127.519 30.3841 127.28 30.7626 127.041 31.21C126.802 31.6573 126.564 32.0358 126.325 32.4831L124.891 35.0295H139.223C139.394 34.7198 140.588 32.7584 140.622 32.5176H129.191L129.908 31.2788C130.146 30.8315 130.385 30.4529 130.624 30.0056C131.784 28.0442 133.013 25.7388 134.173 23.7774L138.473 16.276C138.677 15.9319 140.52 12.7662 140.588 12.4909H124.891V14.9684ZM92.406 34.9951H95.1018C95.17 34.7198 95.3747 34.3069 95.4771 33.9972L96.6714 31.0379C97.1833 29.7303 97.7293 28.4228 98.2752 27.0808L101.415 19.1664C101.619 19.4073 106.772 32.4487 107.386 33.9628C107.523 34.2725 107.693 34.6854 107.762 34.9951H110.457L101.688 13.1447C101.653 13.0414 101.619 12.9382 101.551 12.8006C101.517 12.6973 101.517 12.6973 101.483 12.6285C101.449 12.5253 101.449 12.5253 101.38 12.4565L94.624 29.3518C94.2487 30.2809 93.8733 31.21 93.498 32.139C93.3273 32.5864 93.1226 33.1025 92.9179 33.5499L92.406 34.9951ZM156.114 14.9684H170.412C170.48 14.5899 171.743 12.8006 171.777 12.4565H156.148L156.114 14.9684ZM156.114 34.9951H170.412C170.446 34.7886 171.606 32.8617 171.811 32.4831H156.114V34.9951ZM156.114 24.8441C156.114 24.9817 156.148 25.0162 156.285 25.0162H170.241C170.412 25.0162 170.514 24.7065 170.685 24.4656L171.436 23.158C171.572 22.9171 171.675 22.7107 171.811 22.5042H156.114V24.8441Z" fill="#00FF00"/>
<path d="M23.5451 24.8097C23.6475 24.3968 24.0911 23.9494 24.2958 23.6742C24.4665 23.4677 24.4323 23.5365 24.603 23.3645C24.9442 23.0548 25.3195 22.7795 25.7973 22.6763C26.0361 22.6419 26.1044 22.7107 26.2409 22.8139C26.2409 23.5365 25.729 23.8118 25.1489 24.0871C24.8759 24.2591 23.8522 24.7753 23.5451 24.8097ZM22.1802 26.1861C22.8968 25.9796 24.8418 25.2226 25.4902 24.8441C26.0361 24.5344 26.4456 24.2591 26.7869 23.8462C28.0153 22.3322 25.9338 20.7837 23.7499 23.1236C23.1015 23.8118 22.3508 24.8785 22.1802 26.1861ZM27.4011 18.8223H27.2305C26.5821 18.8223 26.7869 16.6889 26.821 16.3104C26.8551 16.0351 26.9233 15.7254 26.9233 15.4157L26.9575 15.4846C26.9916 15.5534 26.9916 15.519 27.0257 15.5878C27.8106 16.7233 27.9812 18.8223 27.4011 18.8223ZM26.4456 13.6264C26.275 15.106 25.456 17.8244 26.3774 19.1664C26.6845 19.6138 27.2646 19.8546 27.8447 19.5105C29.0731 18.7191 28.4248 16.1039 27.5034 14.7275C27.2646 14.4178 26.6845 13.6608 26.4456 13.6264ZM30.1651 21.9537C30.1651 20.9902 31.9395 22.0913 32.1101 22.2289L33.3385 23.158C32.5537 23.158 32.0077 23.0892 31.4276 22.8827C31.1546 22.8139 30.1651 22.3666 30.1651 21.9537ZM35.1471 23.6742L33.9528 22.6419C29.858 19.0632 28.6295 21.5407 29.858 22.8139C31.257 24.2591 33.3727 24.0871 35.1471 23.6742Z" fill="#00FF00"/>
<path d="M22.1802 26.1861C22.3508 24.8785 23.1015 23.8118 23.7499 23.1236C25.9338 20.7837 28.0153 22.3666 26.7869 23.8462C26.4456 24.2591 26.0361 24.5688 25.4902 24.8441C24.8418 25.2226 22.8968 25.9796 22.1802 26.1861ZM35.1471 23.6742C33.4068 24.0871 31.2911 24.2936 29.858 22.8139C28.5954 21.5407 29.858 19.0288 33.9528 22.6419L35.1471 23.6742ZM26.4456 13.6264C26.6845 13.6608 27.2646 14.4178 27.5034 14.7275C28.4248 16.0695 29.0731 18.6847 27.8447 19.5105C27.2646 19.8891 26.6845 19.6482 26.3774 19.1664C25.456 17.8245 26.275 15.1061 26.4456 13.6264ZM34.9765 47.9333C35.2153 47.8301 35.1471 47.6924 35.4201 47.5548L35.6589 48.0365H35.7272C35.6589 47.5892 35.5224 47.5892 35.5907 47.073C35.6589 46.6945 35.6931 46.3848 35.7272 46.0063C36.2732 45.6278 36.0002 45.7999 36.2732 45.2493C36.4438 44.9052 36.6485 44.8708 36.785 44.4579C36.8874 44.1482 37.0921 43.7353 37.0921 43.4256C37.058 43.0127 36.7509 42.8062 36.8874 42.3589C37.1945 41.0513 36.6826 40.191 35.4883 40.0534C35.0788 40.019 34.5329 40.191 34.4305 39.8813C34.6694 39.3996 36.1367 39.9502 37.7063 38.5049C38.4912 37.7823 38.8324 36.0962 38.2864 34.8575C37.2286 32.5176 34.3622 32.3455 31.4276 32.8617C28.6978 33.3434 21.9413 35.9586 20.6105 32.3799C20.0987 31.0379 20.6788 29.5239 21.4295 28.8357C22.2143 30.0745 23.1698 31.0379 24.7395 31.2444C26.0703 31.4164 28.3224 30.7282 28.22 29.0077C27.5717 30.2121 26.3433 30.7627 24.9442 30.5218C23.8864 30.3497 23.2722 29.8336 22.7262 29.0077C22.5556 28.7325 22.4191 28.4228 22.3508 28.0787C22.8285 27.941 23.2722 27.6313 24.1594 27.4249C25.8314 27.0119 28.22 26.5302 28.8684 24.7753C29.1414 24.8785 29.3461 25.085 29.6191 25.257C31.1888 26.0485 33.1679 25.9796 34.8059 25.4291C35.113 25.3259 35.4201 25.1882 35.6931 25.0506C36.0343 24.8785 36.2049 24.7409 36.4779 24.5688C36.8191 24.6377 37.2969 24.9129 37.7746 25.0162C39.2419 25.3947 40.8457 25.2226 42.0741 24.4656C43.3026 23.7086 44.6675 22.0913 44.3945 19.7858C44.2239 18.2718 43.2343 16.8954 42.313 15.7598L41.5282 14.8308C41.0163 14.2114 39.9926 13.1791 39.4125 12.5597C39.276 12.3877 39.1054 12.2844 38.9689 12.1124C38.8324 11.9403 38.6959 11.7683 38.5594 11.6306C37.5698 10.6327 36.0002 8.77459 36.0343 7.19172C36.0343 6.26265 36.9215 5.36799 37.9111 5.64327C38.6959 5.84973 39.3784 6.7788 39.822 7.26055C40.368 7.84552 41.3917 8.43049 42.2106 7.57024C42.9613 6.7788 42.4836 5.81532 42.0059 5.0583C41.6988 4.61097 41.8694 4.12922 42.3471 3.99158C42.8931 3.81953 43.2685 4.23245 43.8144 3.78512C43.9168 3.7163 43.9168 3.68189 44.0533 3.57866C44.1557 3.50984 44.2239 3.50984 44.3263 3.44102C44.7016 3.23456 44.8723 2.82164 45.2476 2.58077C45.5206 2.40872 45.4865 2.37431 45.5888 2.03021C45.8277 1.85816 46.1689 1.78934 46.476 1.6517C47.0903 1.41083 47.0561 1.58288 47.6362 1.47965C47.4315 1.44524 47.1585 1.41082 47.022 1.30759C47.0903 1.10113 47.2268 0.997904 47.295 0.791443C47.0903 0.929083 47.0561 1.03231 46.9197 1.20436C46.6808 1.41083 46.0666 1.58288 45.7595 1.72052C45.3841 1.89257 45.4865 1.68611 45.1452 1.6517C44.9064 1.61729 44.7358 1.75493 44.4286 1.72052C44.1215 1.68611 43.985 1.61729 43.6438 1.68611C43.132 1.78934 42.7225 1.78934 42.4154 2.13344C41.8353 2.75282 42.2448 2.44313 41.4258 2.78723C40.5045 3.16574 40.1632 3.99158 40.5045 4.92066C40.5727 5.12712 41.3917 6.29706 40.7433 6.05619C40.4362 5.91855 39.7196 4.30127 38.1499 3.92276C35.4883 3.30338 33.0314 5.91855 34.4987 9.32515C35.113 10.7016 36.1367 12.0436 37.1262 13.0414L39.822 16.0007C40.2997 16.5169 40.8116 17.1707 41.1869 17.8244C41.8353 18.8912 42.3471 20.474 41.5623 21.6784C40.8798 22.7107 38.9007 23.4677 37.9793 22.9516C38.2864 22.2289 38.5594 21.816 38.6618 20.8525C38.9007 18.1686 36.4438 15.9319 34.7376 16.9642C35.4883 17.0674 35.8978 17.033 36.5461 17.5492C37.5357 18.3406 38.0817 19.6826 37.7746 20.9902C37.6381 21.5752 37.2286 22.2978 36.8874 22.5386C35.8637 21.7472 35.7954 21.7128 34.9082 20.7837C34.6694 20.5429 34.5329 20.3364 34.294 20.0955C33.5092 19.3729 32.4172 18.4094 30.7793 18.5127C31.0523 16.2072 29.8921 14.3834 28.3907 13.007C27.7082 12.3877 27.5035 12.3877 26.9234 12.0091C26.5821 11.8027 26.7869 10.5639 25.9679 9.1531C25.5243 8.36167 24.9442 7.7767 24.2276 7.29496C22.4532 6.12501 20.2693 6.29706 18.6996 7.50142C16.311 9.29074 15.5944 14.349 14.3659 17.7212C13.6835 19.0976 12.3868 22.0225 10.5783 21.1278C9.58867 20.6461 9.52043 19.8202 9.89578 18.5815C10.1688 17.7212 10.6806 16.3792 9.79342 15.7598C8.73559 15.0028 7.95075 15.6566 7.47302 16.4136C7.23416 16.7921 7.09767 17.3771 6.61994 17.3771C5.8351 17.4115 5.9716 16.3448 5.28913 16.0007L4.70903 15.691C4.47017 15.5534 4.29955 15.5534 3.99244 15.4846C3.65121 15.4157 3.54884 15.2781 3.30997 15.2093C2.69575 15.0716 3.17348 15.5878 2.14978 14.7275C1.77442 14.4178 1.56968 14.177 1.36494 13.7296L1.53556 14.3834L0.853088 14.4178C1.7403 14.5899 1.84267 14.7964 2.52513 15.3469C2.86637 15.6222 2.55926 15.5878 2.79812 15.9663C2.90049 16.1384 3.03698 16.2072 3.13935 16.448C3.24172 16.6889 3.27585 16.8954 3.41234 17.0674C3.54884 17.2739 3.65121 17.2739 3.82182 17.5492C4.12893 18.0653 4.47017 17.9621 4.98202 18.1341C5.22088 18.203 5.32325 18.4094 5.49387 18.5127C5.80098 18.7535 6.21046 19.0288 6.75643 18.96C7.50715 18.8912 7.8825 18.375 8.18962 17.7556C8.29199 17.5492 8.36023 17.3427 8.5991 17.3083C8.87208 17.5492 8.39436 18.203 8.18962 19.0976C8.019 19.8546 8.019 20.5429 8.32611 21.2311C8.76971 22.2289 9.86166 23.1924 11.329 23.2268C16.2769 23.3645 16.7205 13.8329 18.8361 10.8048C19.4162 9.97894 20.4058 8.74018 22.0437 9.08428C23.1357 9.32515 24.5347 10.5983 24.5688 11.5274C21.0883 11.5274 19.348 14.7275 20.3375 16.6201C20.474 16.861 20.7811 17.2395 21.02 17.3427C20.747 16.5857 20.474 16.3792 20.6446 15.4157C20.747 14.6931 21.02 14.2458 21.3612 13.7985C21.6684 13.42 22.112 13.0414 22.7262 12.8006C23.0674 12.6629 24.5006 12.4221 24.7395 12.7662C24.7395 14.1082 24.1935 15.1749 23.9205 16.4136C23.7158 17.3427 23.6134 18.4438 23.9546 19.3385C24.057 19.6482 24.2617 19.8891 24.33 20.1299C23.1698 20.4396 22.2143 21.6096 21.6684 22.6419C21.02 23.8806 20.6446 25.257 20.747 26.8743C19.4845 27.5625 18.3584 29.283 18.0854 30.7627C17.71 32.9649 18.7337 34.651 19.8257 35.5112C22.4873 37.6791 27.4011 35.8554 30.5746 35.1327C32.076 34.7886 34.9423 34.2381 36.1025 35.3048C36.7168 35.8554 36.8874 36.9909 36.1708 37.6103C35.113 38.4705 31.8712 38.1608 32.4513 40.3287C32.9632 42.2212 35.8296 40.6384 35.4542 42.2212C35.3518 42.6341 34.9082 42.7718 34.8741 43.3223C34.84 43.5976 34.9082 43.7697 34.9082 44.045C34.9082 44.6299 35.113 44.7676 35.1812 45.4558C35.2153 45.7655 35.3177 45.7999 35.4883 45.9719C35.3177 47.7957 35.2153 47.2451 34.9765 47.9333Z" fill="black"/>
</g>
<defs>
<clipPath id="clip0_53_49">
<rect width="203" height="49" fill="white"/>
</clipPath>
</defs>
</svg>
