<svg width="18" height="18" viewBox="0 0 18 18" fill="none" xmlns="http://www.w3.org/2000/svg">
<path d="M6.96307 13.9261C5.58591 13.9261 4.23967 13.5178 3.0946 12.7527C1.94953 11.9875 1.05705 10.9001 0.530035 9.62772C0.00301701 8.35539 -0.134875 6.95535 0.133797 5.60464C0.402468 4.25394 1.06564 3.01324 2.03944 2.03944C3.01324 1.06564 4.25394 0.402468 5.60464 0.133797C6.95535 -0.134875 8.35539 0.00301701 9.62772 0.530035C10.9001 1.05705 11.9875 1.94953 12.7527 3.0946C13.5178 4.23967 13.9261 5.58591 13.9261 6.96307C13.9242 8.80918 13.1899 10.5791 11.8845 11.8845C10.5791 13.1899 8.80918 13.9242 6.96307 13.9261ZM6.96307 1.31414C5.84582 1.31414 4.75366 1.64545 3.8247 2.26616C2.89573 2.88687 2.1717 3.76911 1.74414 4.80132C1.31659 5.83353 1.20472 6.96934 1.42269 8.06512C1.64065 9.16091 2.17866 10.1675 2.96868 10.9575C3.75869 11.7475 4.76524 12.2855 5.86102 12.5035C6.95681 12.7214 8.09262 12.6096 9.12482 12.182C10.157 11.7544 11.0393 11.0304 11.66 10.1014C12.2807 9.17249 12.612 8.08032 12.612 6.96307C12.61 5.46549 12.0142 4.02982 10.9553 2.97087C9.89632 1.91192 8.46065 1.31613 6.96307 1.31414Z" fill="#1D1D1D"/>
<path d="M17.2023 17.9944C17.029 17.9956 16.8622 17.9281 16.7386 17.8067L10.9958 12.0601C10.8726 11.9357 10.8038 11.7673 10.8047 11.5922C10.8056 11.417 10.876 11.2494 11.0005 11.1262C11.125 11.0029 11.2933 10.9342 11.4684 10.9351C11.6436 10.9359 11.8112 11.0064 11.9345 11.1308L17.6679 16.8736C17.7615 16.9653 17.8255 17.0829 17.8518 17.2113C17.878 17.3396 17.8653 17.4729 17.8153 17.594C17.7652 17.7151 17.6801 17.8184 17.5709 17.8908C17.4617 17.9631 17.3333 18.0012 17.2023 18V17.9944Z" fill="#1D1D1D"/>
</svg>
