<svg width="22" height="23" viewBox="0 0 22 23" fill="none" xmlns="http://www.w3.org/2000/svg">
<path d="M5.99652 6.00329C5.99652 4.67634 6.52365 3.4037 7.46195 2.4654C8.40024 1.52711 9.67284 1 10.9998 1C12.3267 1 13.5993 1.52711 14.5376 2.4654C15.4759 3.4037 16.0031 4.67634 16.0031 6.00329C16.0031 8.76619 13.7627 11.7773 10.9998 11.7773C8.23689 11.7773 5.99652 8.76619 5.99652 6.00329Z" stroke="white" stroke-miterlimit="10"/>
<path d="M11 22.148C14.7346 22.1512 15.0284 22.148 21 22.148C20.2685 18.669 16.0751 16 11 16C5.92488 16 1.72502 18.669 1 22.148C5.87946 22.148 7.26508 22.1525 11 22.148Z" stroke="white" stroke-miterlimit="10"/>
</svg>
