<svg width="22" height="23" viewBox="0 0 22 23" fill="none" xmlns="http://www.w3.org/2000/svg">
<path d="M19.0308 22.1529H2.80351C2.55449 22.1544 2.31374 22.0636 2.12772 21.8981C1.94171 21.7325 1.82361 21.5039 1.79623 21.2564L1.00048 9.31513C0.996289 9.18172 1.01947 9.04886 1.0686 8.92476C1.11774 8.80065 1.19178 8.68792 1.28616 8.59354C1.38055 8.49915 1.49328 8.42511 1.61738 8.37597C1.74149 8.32684 1.87435 8.30366 2.00776 8.30786H19.9927C20.2599 8.30786 20.5161 8.41398 20.705 8.60288C20.8939 8.79178 21 9.04799 21 9.31513L20.038 21.2665C20.0084 21.5122 19.8893 21.7383 19.7035 21.9018C19.5177 22.0653 19.2782 22.1547 19.0308 22.1529V22.1529Z" stroke="white" stroke-linecap="round" stroke-linejoin="round"/>
<path d="M5.96124 11.5764V6.03639C5.96124 4.70066 6.49187 3.41963 7.43638 2.47512C8.38089 1.53061 9.6619 1 10.9976 1C12.3334 1 13.6144 1.53061 14.5589 2.47512C15.5034 3.41963 16.034 4.70066 16.034 6.03639V11.5764" stroke="white" stroke-linecap="round" stroke-linejoin="round"/>
</svg>
