<svg width="30" height="30" viewBox="0 0 30 30" fill="none" xmlns="http://www.w3.org/2000/svg">
<path fill-rule="evenodd" clip-rule="evenodd" d="M3.4375 2.6875C3.02329 2.6875 2.6875 3.02329 2.6875 3.4375C2.6875 3.85171 3.02329 4.1875 3.4375 4.1875H5.97692L6.45989 6.1194L8.73207 15.2081C7.4383 15.3706 6.4375 16.4747 6.4375 17.8125C6.4375 19.2622 7.61275 20.4375 9.0625 20.4375H23.4375C23.8517 20.4375 24.1875 20.1017 24.1875 19.6875C24.1875 19.2733 23.8517 18.9375 23.4375 18.9375H9.0625C8.44118 18.9375 7.9375 18.4338 7.9375 17.8125C7.9375 17.1912 8.44118 16.6875 9.0625 16.6875H9.6875H23.4375C23.7817 16.6875 24.0816 16.4533 24.1651 16.1194L26.6651 6.1194C26.7211 5.89535 26.6708 5.65798 26.5287 5.47594C26.3865 5.2939 26.1685 5.1875 25.9375 5.1875H7.77308L7.29011 3.2556C7.20664 2.92172 6.90665 2.6875 6.5625 2.6875H3.4375ZM9.6875 22.6875C8.58293 22.6875 7.6875 23.5829 7.6875 24.6875C7.6875 25.7921 8.58293 26.6875 9.6875 26.6875C10.7921 26.6875 11.6875 25.7921 11.6875 24.6875C11.6875 23.5829 10.7921 22.6875 9.6875 22.6875ZM22.1875 22.6875C21.0829 22.6875 20.1875 23.5829 20.1875 24.6875C20.1875 25.7921 21.0829 26.6875 22.1875 26.6875C23.2921 26.6875 24.1875 25.7921 24.1875 24.6875C24.1875 23.5829 23.2921 22.6875 22.1875 22.6875Z" fill="white"/>
</svg>
