<svg width="186" height="46" viewBox="0 0 186 46" fill="none" xmlns="http://www.w3.org/2000/svg">
<g clip-path="url(#clip0_53_74)">
<path d="M26.4208 0C26.4208 0 30.2646 7.71359 29.5761 10.9227C29.5761 10.9227 39.6732 14.132 40.7634 19.4249C40.7634 19.3683 46.2708 12.2739 26.4208 0ZM22.5194 11.5421C23.495 13.5694 23.9537 15.7651 24.5276 18.0172L18.7907 15.8775C19.3069 12.4431 15.9221 7.26314 15.9221 7.26314L22.5194 11.5421ZM12.3076 16.8348C12.9385 18.4675 13.6844 20.5507 14.0286 22.3524L8.86494 21.114C9.38129 17.6794 6.11131 13.5694 6.11131 13.5694L12.3076 16.8348Z" fill="white"/>
<path d="M23.6095 8.6142C23.6095 8.6142 46.7301 24.5483 48.279 30.7419C49.4263 35.4151 46.0987 39.6942 46.0987 39.6942C46.0987 39.6942 44.3204 27.5322 0.0300598 46C4.50487 41.1013 6.97177 34.7956 6.28343 28.0389C5.99657 25.2801 5.30823 22.634 4.10313 20.2692L14.4875 25.6178C14.4875 25.7866 14.4875 25.9556 14.5451 26.1243C14.9465 30.235 14.6597 34.2886 13.6847 38.0046C15.8075 33.6132 16.84 28.6019 16.3237 23.4219C16.0367 20.269 15.2336 17.2848 13.9714 14.5824L25.0442 21.8453C25.1013 22.1832 25.1013 22.5774 25.1588 22.9153C25.6177 27.4763 25.1588 31.9241 23.954 35.9777C26.5356 31.2486 27.8554 25.7305 27.2815 20.0438C26.8795 15.8773 25.6171 12.0486 23.6095 8.6142Z" fill="white"/>
<path d="M51.8361 28.8836C51.8361 35.4154 57.3436 39.9757 64.3429 39.6942C68.5309 39.5254 70.998 38.0047 71.8584 37.6109V31.9805H70.998C70.1949 35.4152 68.0721 38.2865 64.4004 38.2865C59.8681 38.2865 56.3686 33.9513 56.3686 28.8835C56.3686 23.8164 59.9252 19.4808 64.4004 19.4808C68.0721 19.4808 70.1949 22.296 70.998 25.7866H71.8584V20.1566C70.998 19.7627 68.5309 18.2986 64.3429 18.0733C57.3436 17.7917 51.8361 22.3523 51.8361 28.8836ZM84.8244 18.0731C78.6857 18.0731 73.9236 22.9154 73.9236 28.94C73.9236 34.9083 78.6855 39.8067 84.8244 39.8067C90.9633 39.8067 95.7247 34.9644 95.7247 28.94C95.7246 22.9154 90.9632 18.0731 84.8244 18.0731ZM84.8244 38.4555C80.9806 38.4555 78.3989 34.0075 78.3989 28.8836C78.3989 23.8166 80.9806 19.312 84.8244 19.312C88.6683 19.312 91.2498 23.76 91.2498 28.8836C91.2498 33.9511 88.6681 38.4555 84.8244 38.4555ZM120.739 22.5213C120.739 20.7761 122.574 19.3684 124.468 19.312C126.533 19.312 128.599 20.213 129.688 24.1541H130.262V19.425C129.402 19.1432 127.337 18.0731 124.41 18.0731C120.854 18.0731 117.297 20.2129 117.297 24.2106C117.297 31.3611 127.279 30.01 127.279 34.7957C127.279 37.2166 125.788 38.3432 123.493 38.3432C121.255 38.3432 118.673 36.5412 117.813 32.9378H117.067V38.1179C117.985 38.3991 120.337 39.7506 123.378 39.7506C128.656 39.7506 131.237 36.316 131.237 33.219C131.295 25.5619 120.739 27.87 120.739 22.5213ZM160.439 20.6632C160.439 20.2129 160.726 19.8187 161.071 19.5936L162.447 18.8617V18.5238H154.243V18.8617L155.62 19.5936C156.022 19.8186 156.251 20.2129 156.251 20.6632V37.1603C156.251 37.6111 155.964 38.0047 155.62 38.2302L154.243 38.9625V39.3003H162.447V38.9625L161.071 38.2302C160.669 38.005 160.439 37.6111 160.439 37.1603V20.6632ZM95.8967 18.524V18.8618L97.2741 19.5938C97.6754 19.8187 97.905 20.213 97.905 20.6633V37.1604C97.905 37.6113 97.6182 38.0049 97.2741 38.2304L95.8967 38.9626V39.3004H104.101V38.9626L102.724 38.2304C102.322 38.0051 102.093 37.6113 102.093 37.1604V20.6632C102.093 20.3819 102.208 20.1567 102.322 19.9315C102.437 19.7627 102.609 19.7061 102.839 19.7061H105.478C107.084 19.7061 108.805 21.5642 108.805 23.8727V25.055C108.805 27.3633 107.257 28.94 105.478 28.94H103.871C103.871 28.94 109.035 37.667 109.838 38.6244C110.986 40.0321 114.772 41.8901 117.698 41.2709C114.829 39.7506 112.133 34.9086 109.895 30.8545C108.691 30.6857 107.888 30.2916 107.371 29.9537C111.903 29.9537 113.051 26.2937 113.051 24.4922C113.051 19.5939 109.551 18.5801 105.593 18.5801H95.8969L95.8967 18.524ZM164.169 18.524V18.8618L165.545 19.5938C165.947 19.8187 166.177 20.213 166.177 20.6633V37.1604C166.177 37.6113 165.89 38.0049 165.545 38.2304L164.169 38.9626V39.3004H172.373V38.9626L170.996 38.2304C170.594 38.0051 170.365 37.6113 170.365 37.1604V20.6632C170.365 20.3819 170.479 20.1567 170.594 19.9315C170.709 19.7627 170.881 19.7061 171.11 19.7061H173.749C175.356 19.7061 177.077 21.5642 177.077 23.8727V25.055C177.077 27.3633 175.528 28.94 173.749 28.94H172.143C172.143 28.94 177.306 37.667 178.109 38.6244C179.257 40.0321 183.044 41.8901 185.97 41.2709C183.101 39.7506 180.404 34.9086 178.167 30.8545C176.962 30.6857 176.159 30.2916 175.643 29.9537C180.175 29.9537 181.323 26.2937 181.323 24.4922C181.323 19.5939 177.823 18.5801 173.865 18.5801H164.169L164.169 18.524ZM151.776 38.2301C151.49 38.0613 151.318 37.8357 151.203 37.611L143.4 18.524H140.876L133.074 37.611C132.959 37.8923 132.787 38.1176 132.5 38.2301L131.123 38.9623V39.3002H137.434V38.9623L136.229 38.3432C135.827 38.1179 135.541 37.7235 135.541 37.2169C135.541 37.0481 135.598 36.879 135.655 36.7666L137.376 32.5999H144.72L146.441 36.7666C146.499 36.879 146.499 37.0478 146.499 37.1604C146.499 37.5548 146.327 37.8925 146.04 38.1179C145.982 38.1738 145.925 38.1738 145.868 38.2304L144.491 38.9626V39.3004H153.154V38.9626L151.776 38.2301ZM137.892 31.0797L140.933 23.6475L143.974 31.0797H137.892Z" fill="white"/>
</g>
<defs>
<clipPath id="clip0_53_74">
<rect width="186" height="46" fill="white"/>
</clipPath>
</defs>
</svg>
