<svg width="120" height="36" viewBox="0 0 120 36" fill="none" xmlns="http://www.w3.org/2000/svg">
<g clip-path="url(#clip0_53_81)">
<path d="M0 25.4638V0.529575H4.43235V25.4637H0V25.4639V25.4638ZM15.7789 7.37492C10.0956 7.37492 6.16297 11.6927 6.16297 16.6348C6.16297 22.1504 10.4414 25.9503 15.823 25.9503C20.9305 25.9503 25.3627 22.2206 25.3627 16.6229C25.3627 11.916 21.6899 7.37492 15.7789 7.37492ZM15.7266 11.6003C18.7008 11.6003 20.8898 13.8878 20.8898 16.6507C20.8898 19.5801 18.4762 21.7169 15.8068 21.7169C12.6527 21.7169 10.6676 19.2467 10.6676 16.6586C10.6677 13.8218 12.9089 11.6003 15.7266 11.6003ZM36.4993 7.37492C30.8163 7.37492 26.8835 11.6927 26.8835 16.6348C26.8835 22.1504 31.1619 25.9503 36.5435 25.9503C41.651 25.9503 46.0831 22.2206 46.0831 16.6229C46.0831 13.3267 44.6385 11.8642 44.6385 11.8642L45.8672 11.4478V7.89309H39.5717C39.5717 7.89309 38.2068 7.37492 36.4993 7.37492ZM36.4472 11.6003C39.4213 11.6003 41.6104 13.8878 41.6104 16.6507C41.6104 19.5801 39.1968 21.7169 36.5274 21.7169C33.3733 21.7169 31.3883 19.2467 31.3883 16.6586C31.3884 13.8218 33.6295 11.6003 36.4472 11.6003ZM41.5791 26.6827C41.5791 29.612 39.1656 31.7649 36.4962 31.7649C33.342 31.7649 31.3489 29.2706 31.3489 26.6827H26.8522C26.8522 32.1983 31.1305 35.998 36.5123 35.998C41.6197 35.998 46.0518 32.28 46.0518 26.6827H41.5791ZM47.8585 25.4638V7.89309H52.2911V25.4638H47.8585ZM56.5952 25.4638V11.8288H54.2183V7.89309H56.5952V2.49744H61.0277V7.89309H63.4688V11.8288H61.0277V25.4638H56.5952ZM53.0008 2.90269C53.0008 4.50451 51.6866 5.80311 50.0657 5.80311C48.4444 5.80311 47.1304 4.50443 47.1304 2.90269C47.1304 1.30079 48.4445 0.00219727 50.0657 0.00219727C51.6867 0.00219727 53.0008 1.30079 53.0008 2.90269ZM73.434 7.36307C67.724 7.36307 64.043 11.6829 64.043 16.7935C64.043 22.0747 67.7363 25.9622 73.5264 25.9622C78.9276 25.9622 81.5845 22.6294 81.5845 22.6294L78.6214 19.6975C78.6214 19.6975 76.3842 22.082 73.5826 22.082C71.2471 22.082 69.3799 20.7939 68.7284 18.432H82.54V17.226C82.5402 12.4135 79.7212 7.36307 73.434 7.36307ZM73.2936 11.2194C75.3355 11.2194 77.4237 12.2988 77.8908 14.8773H68.608C68.9755 13.0648 70.5804 11.2194 73.2936 11.2194ZM93.6271 25.9645C87.901 25.9645 83.9992 21.6548 83.9992 16.5737C83.9992 11.3298 88.4088 7.35979 93.6087 7.35979C98.6354 7.35979 101.209 10.8663 101.209 10.8663L98.1164 13.9079C98.1164 13.9079 96.3252 11.6211 93.5875 11.6211C90.5535 11.6211 88.4789 13.9146 88.4789 16.6409C88.4789 19.5195 90.6857 21.7282 93.5535 21.7282C96.3352 21.7282 98.1121 19.4451 98.1121 19.4451L101.235 22.485C101.235 22.485 98.6871 25.9646 93.6272 25.9646L93.6271 25.9645ZM102.848 25.4765V0.466193H107.28V9.65512C107.28 9.65512 108.978 7.35979 112.67 7.35979C117.311 7.35979 120 10.7691 120 15.1296V25.4764H115.567V15.7916C115.567 12.8621 113.722 11.6467 111.677 11.6467C109.347 11.6467 107.28 12.9568 107.28 16.0181V25.4765H102.848Z" fill="#1B84FF"/>
</g>
<defs>
<clipPath id="clip0_53_81">
<rect width="120" height="36" fill="white"/>
</clipPath>
</defs>
</svg>
