<svg width="155" height="50" viewBox="0 0 155 50" fill="none" xmlns="http://www.w3.org/2000/svg">
<path d="M22 31.7056V8.49101H26.1267V31.7056H22V31.7057V31.7056ZM36.6907 14.8643C31.3994 14.8643 27.7379 18.8843 27.7379 23.4856C27.7379 28.6207 31.7213 32.1586 36.7318 32.1586C41.487 32.1586 45.6135 28.6861 45.6135 23.4745C45.6135 19.0921 42.1941 14.8643 36.6907 14.8643ZM36.642 18.7983C39.4111 18.7983 41.4492 20.928 41.4492 23.5003C41.4492 26.2277 39.202 28.2172 36.7166 28.2172C33.7801 28.2172 31.9319 25.9173 31.9319 23.5077C31.932 20.8665 34.0186 18.7983 36.642 18.7983ZM55.9821 14.8643C50.691 14.8643 47.0294 18.8843 47.0294 23.4856C47.0294 28.6207 51.0128 32.1586 56.0233 32.1586C60.7785 32.1586 64.905 28.6861 64.905 23.4745C64.905 20.4056 63.56 19.0439 63.56 19.0439L64.7039 18.6563V15.3467H58.8427C58.8427 15.3467 57.5718 14.8643 55.9821 14.8643ZM55.9336 18.7983C58.7026 18.7983 60.7407 20.928 60.7407 23.5003C60.7407 26.2277 58.4935 28.2172 56.0083 28.2172C53.0717 28.2172 51.2236 25.9173 51.2236 23.5077C51.2237 20.8665 53.3103 18.7983 55.9336 18.7983ZM60.7116 32.8405C60.7116 35.5677 58.4645 37.5722 55.9792 37.5722C53.0425 37.5722 51.1869 35.2499 51.1869 32.8405H47.0003C47.0003 37.9757 50.9836 41.5133 55.9942 41.5133C60.7493 41.5133 64.8759 38.0518 64.8759 32.8405H60.7116ZM66.5579 31.7056V15.3467H70.6848V31.7056H66.5579ZM74.6921 31.7056V19.011H72.4791V15.3467H74.6921V10.3232H78.8189V15.3467H81.0916V19.011H78.8189V31.7056H74.6921ZM71.3456 10.7005C71.3456 12.1918 70.122 13.4008 68.6129 13.4008C67.1034 13.4008 65.88 12.1917 65.88 10.7005C65.88 9.20904 67.1035 8 68.6129 8C70.1221 8 71.3456 9.20904 71.3456 10.7005ZM90.3696 14.8532C85.0533 14.8532 81.6262 18.8752 81.6262 23.6333C81.6262 28.5503 85.0649 32.1697 90.4557 32.1697C95.4843 32.1697 97.958 29.0667 97.958 29.0667L95.1993 26.337C95.1993 26.337 93.1163 28.5571 90.5079 28.5571C88.3335 28.5571 86.5951 27.3578 85.9885 25.1588H98.8476V24.0359C98.8477 19.5553 96.2232 14.8532 90.3696 14.8532ZM90.2389 18.4436C92.1399 18.4436 94.0841 19.4486 94.519 21.8492H85.8764C86.2186 20.1617 87.7128 18.4436 90.2389 18.4436ZM109.17 32.1718C103.839 32.1718 100.206 28.1594 100.206 23.4286C100.206 18.5464 104.312 14.8502 109.153 14.8502C113.833 14.8502 116.229 18.1148 116.229 18.1148L113.35 20.9467C113.35 20.9467 111.682 18.8176 109.133 18.8176C106.308 18.8176 104.377 20.953 104.377 23.4912C104.377 26.1713 106.432 28.2277 109.101 28.2277C111.691 28.2277 113.346 26.102 113.346 26.102L116.253 28.9323C116.253 28.9323 113.881 32.1719 109.17 32.1719L109.17 32.1718ZM117.755 31.7175V8.432H121.882V16.9872C121.882 16.9872 123.462 14.8502 126.899 14.8502C131.221 14.8502 133.724 18.0244 133.724 22.0841V31.7174H129.597V22.7005C129.597 19.973 127.879 18.8414 125.975 18.8414C123.806 18.8414 121.882 20.0612 121.882 22.9114V31.7175H117.755Z" fill="#1B84FF"/>
</svg>
