<svg width="48" height="48" viewBox="0 0 48 48" fill="none" xmlns="http://www.w3.org/2000/svg">
<path fill-rule="evenodd" clip-rule="evenodd" d="M12 46.8C17.9647 46.8 22.8 41.9647 22.8 36C22.8 30.0353 17.9647 25.2 12 25.2C6.03532 25.2 1.2 30.0353 1.2 36C1.2 41.9647 6.03532 46.8 12 46.8ZM12 48C18.6274 48 24 42.6274 24 36C24 29.3726 18.6274 24 12 24C5.37258 24 0 29.3726 0 36C0 42.6274 5.37258 48 12 48Z" fill="white"/>
<path d="M12.0011 41C11.0121 41.0002 10.0452 40.7071 9.2228 40.1578C8.4004 39.6085 7.75937 38.8276 7.38081 37.9139C7.00224 37.0002 6.90313 35.9948 7.09602 35.0248C7.28892 34.0548 7.76514 33.1638 8.46447 32.4645C9.16379 31.7651 10.0548 31.2889 11.0248 31.096C11.9948 30.9031 13.0002 31.0022 13.9139 31.3808C14.8276 31.7594 15.6085 32.4004 16.1578 33.2228C16.7071 34.0452 17.0002 35.0121 17 36.0011C16.9986 37.3264 16.4715 38.5971 15.5343 39.5343C14.5971 40.4715 13.3264 40.9986 12.0011 41ZM12.0011 32.3652C11.2819 32.365 10.5788 32.578 9.98077 32.9774C9.38272 33.3768 8.91653 33.9446 8.64118 34.6089C8.36583 35.2733 8.29368 36.0044 8.43385 36.7097C8.57402 37.4151 8.92022 38.063 9.42867 38.5716C9.93712 39.0802 10.585 39.4266 11.2903 39.567C11.9956 39.7074 12.7267 39.6354 13.3912 39.3603C14.0556 39.0851 14.6235 38.6191 15.0231 38.0211C15.4226 37.4232 15.6359 36.7202 15.6359 36.0011C15.6351 35.0372 15.2519 34.113 14.5704 33.4314C13.889 32.7497 12.9649 32.3663 12.0011 32.3652Z" fill="white"/>
<path fill-rule="evenodd" clip-rule="evenodd" d="M12 22.8C17.9647 22.8 22.8 17.9647 22.8 12C22.8 6.03532 17.9647 1.2 12 1.2C6.03532 1.2 1.2 6.03532 1.2 12C1.2 17.9647 6.03532 22.8 12 22.8ZM12 24C18.6274 24 24 18.6274 24 12C24 5.37258 18.6274 0 12 0C5.37258 0 0 5.37258 0 12C0 18.6274 5.37258 24 12 24Z" fill="white"/>
<path d="M18.4757 15.9999H6L12.2787 6L18.4757 15.9999ZM8.5263 14.603H15.9666L12.2712 8.63913L8.5263 14.603Z" fill="white"/>
<path fill-rule="evenodd" clip-rule="evenodd" d="M36 22.8C41.9647 22.8 46.8 17.9647 46.8 12C46.8 6.03532 41.9647 1.2 36 1.2C30.0353 1.2 25.2 6.03532 25.2 12C25.2 17.9647 30.0353 22.8 36 22.8ZM36 24C42.6274 24 48 18.6274 48 12C48 5.37258 42.6274 0 36 0C29.3726 0 24 5.37258 24 12C24 18.6274 29.3726 24 36 24Z" fill="white"/>
<path d="M41 17H31V7H41V17ZM32.3643 15.6357H39.6357V8.36426H32.3643V15.6357Z" fill="white"/>
<path fill-rule="evenodd" clip-rule="evenodd" d="M36 46.8C41.9647 46.8 46.8 41.9647 46.8 36C46.8 30.0353 41.9647 25.2 36 25.2C30.0353 25.2 25.2 30.0353 25.2 36C25.2 41.9647 30.0353 46.8 36 46.8ZM36 48C42.6274 48 48 42.6274 48 36C48 29.3726 42.6274 24 36 24C29.3726 24 24 29.3726 24 36C24 42.6274 29.3726 48 36 48Z" fill="white"/>
<path d="M40.0348 31.0008L31 40.0356L31.9649 41.0005L40.9997 31.9657L40.0348 31.0008Z" fill="white"/>
<path d="M31.9649 31L31 31.9648L40.0348 40.9997L40.9997 40.0348L31.9649 31Z" fill="white"/>
</svg>
