<svg width="36" height="36" viewBox="0 0 36 36" fill="none" xmlns="http://www.w3.org/2000/svg">
<path fill-rule="evenodd" clip-rule="evenodd" d="M9 35.1C13.4735 35.1 17.1 31.4735 17.1 27C17.1 22.5265 13.4735 18.9 9 18.9C4.52649 18.9 0.9 22.5265 0.9 27C0.9 31.4735 4.52649 35.1 9 35.1ZM9 36C13.9706 36 18 31.9706 18 27C18 22.0294 13.9706 18 9 18C4.02944 18 0 22.0294 0 27C0 31.9706 4.02944 36 9 36Z" fill="white"/>
<path d="M9.00079 30.75C8.25904 30.7502 7.53391 30.5303 6.9171 30.1183C6.3003 29.7063 5.81953 29.1207 5.5356 28.4354C5.25168 27.7502 5.17735 26.9961 5.32202 26.2686C5.46669 25.5411 5.82386 24.8728 6.34835 24.3484C6.87285 23.8239 7.5411 23.4667 8.2686 23.322C8.99611 23.1773 9.75017 23.2517 10.4354 23.5356C11.1207 23.8195 11.7063 24.3003 12.1183 24.9171C12.5303 25.5339 12.7502 26.259 12.75 27.0008C12.749 27.9948 12.3536 28.9478 11.6507 29.6507C10.9478 30.3536 9.99482 30.749 9.00079 30.75ZM9.00079 24.2739C8.46142 24.2737 7.93412 24.4335 7.48558 24.7331C7.03704 25.0326 6.6874 25.4584 6.48089 25.9567C6.27437 26.455 6.22026 27.0033 6.32539 27.5323C6.43052 28.0613 6.69017 28.5473 7.0715 28.9287C7.45284 29.3102 7.93873 29.57 8.46772 29.6752C8.99671 29.7805 9.54504 29.7266 10.0434 29.5202C10.5417 29.3138 10.9676 28.9643 11.2673 28.5159C11.567 28.0674 11.7269 27.5402 11.7269 27.0008C11.7263 26.2779 11.4389 25.5848 10.9278 25.0735C10.4167 24.5623 9.72368 24.2747 9.00079 24.2739Z" fill="white"/>
<path fill-rule="evenodd" clip-rule="evenodd" d="M9 17.1C13.4735 17.1 17.1 13.4735 17.1 9C17.1 4.52649 13.4735 0.9 9 0.9C4.52649 0.9 0.9 4.52649 0.9 9C0.9 13.4735 4.52649 17.1 9 17.1ZM9 18C13.9706 18 18 13.9706 18 9C18 4.02944 13.9706 0 9 0C4.02944 0 0 4.02944 0 9C0 13.9706 4.02944 18 9 18Z" fill="white"/>
<path d="M13.8568 11.9999H4.5L9.20901 4.5L13.8568 11.9999ZM6.39473 10.9522H11.9749L9.20337 6.47935L6.39473 10.9522Z" fill="white"/>
<path fill-rule="evenodd" clip-rule="evenodd" d="M27 17.1C31.4735 17.1 35.1 13.4735 35.1 9C35.1 4.52649 31.4735 0.9 27 0.9C22.5265 0.9 18.9 4.52649 18.9 9C18.9 13.4735 22.5265 17.1 27 17.1ZM27 18C31.9706 18 36 13.9706 36 9C36 4.02944 31.9706 0 27 0C22.0294 0 18 4.02944 18 9C18 13.9706 22.0294 18 27 18Z" fill="white"/>
<path d="M30.75 12.75H23.25V5.25H30.75V12.75ZM24.2732 11.7268H29.7268V6.27319H24.2732V11.7268Z" fill="white"/>
<path fill-rule="evenodd" clip-rule="evenodd" d="M27 35.1C31.4735 35.1 35.1 31.4735 35.1 27C35.1 22.5265 31.4735 18.9 27 18.9C22.5265 18.9 18.9 22.5265 18.9 27C18.9 31.4735 22.5265 35.1 27 35.1ZM27 36C31.9706 36 36 31.9706 36 27C36 22.0294 31.9706 18 27 18C22.0294 18 18 22.0294 18 27C18 31.9706 22.0294 36 27 36Z" fill="white"/>
<path d="M30.0261 23.2506L23.25 30.0267L23.9736 30.7504L30.7498 23.9743L30.0261 23.2506Z" fill="white"/>
<path d="M23.9736 23.25L23.25 23.9736L30.0261 30.7497L30.7498 30.0261L23.9736 23.25Z" fill="white"/>
</svg>
