<svg width="79" height="19" viewBox="0 0 79 19" fill="none" xmlns="http://www.w3.org/2000/svg">
<path d="M12.08 18.288C11.184 18.288 10.392 18.088 9.704 17.688C9.032 17.272 8.504 16.712 8.12 16.008C7.736 15.304 7.544 14.512 7.544 13.632V5.256C7.544 4.824 7.44 4.432 7.232 4.08C7.024 3.728 6.744 3.448 6.392 3.24C6.04 3.032 5.656 2.928 5.24 2.928C4.824 2.928 4.44 3.032 4.088 3.24C3.752 3.448 3.48 3.728 3.272 4.08C3.08 4.432 2.984 4.824 2.984 5.256V18H0.68V5.568C0.68 4.688 0.872 3.896 1.256 3.192C1.64 2.488 2.176 1.936 2.864 1.536C3.552 1.12 4.344 0.912 5.24 0.912C6.152 0.912 6.952 1.12 7.64 1.536C8.328 1.936 8.864 2.488 9.248 3.192C9.632 3.896 9.824 4.688 9.824 5.568V13.944C9.824 14.376 9.928 14.768 10.136 15.12C10.344 15.472 10.616 15.752 10.952 15.96C11.304 16.168 11.68 16.272 12.08 16.272C12.48 16.272 12.848 16.168 13.184 15.96C13.52 15.752 13.784 15.472 13.976 15.12C14.184 14.768 14.288 14.376 14.288 13.944V1.2H16.592V13.632C16.592 14.512 16.4 15.304 16.016 16.008C15.632 16.712 15.104 17.272 14.432 17.688C13.76 18.088 12.976 18.288 12.08 18.288ZM24.1456 18C23.2176 18 22.3936 17.784 21.6736 17.352C20.9696 16.904 20.4176 16.32 20.0176 15.6C19.6176 14.88 19.4176 14.096 19.4176 13.248C19.4176 12.48 19.5936 11.76 19.9456 11.088C20.3136 10.416 20.8416 9.888 21.5296 9.504C20.8576 9.072 20.3456 8.536 19.9936 7.896C19.6416 7.256 19.4656 6.584 19.4656 5.88C19.4656 5.016 19.6656 4.232 20.0656 3.528C20.4816 2.824 21.0416 2.264 21.7456 1.848C22.4496 1.416 23.2256 1.2 24.0736 1.2H30.7216V3.24H24.3376C23.8416 3.24 23.4016 3.36 23.0176 3.6C22.6336 3.84 22.3296 4.16 22.1056 4.56C21.8816 4.944 21.7696 5.384 21.7696 5.88C21.7696 6.344 21.8816 6.768 22.1056 7.152C22.3456 7.536 22.6656 7.848 23.0656 8.088C23.4656 8.312 23.9056 8.424 24.3856 8.424H29.8336V10.464H24.5536C23.9616 10.464 23.4496 10.6 23.0176 10.872C22.6016 11.128 22.2736 11.472 22.0336 11.904C21.8096 12.32 21.6976 12.768 21.6976 13.248C21.6976 13.728 21.8096 14.176 22.0336 14.592C22.2576 15.008 22.5776 15.344 22.9936 15.6C23.4096 15.84 23.8976 15.96 24.4576 15.96H30.7216V18H24.1456ZM32.4785 18L37.5425 10.248C36.6785 10.04 35.9025 9.68 35.2145 9.168C34.5425 8.656 34.0065 8 33.6065 7.2C33.2065 6.384 33.0065 5.448 33.0065 4.392V1.2H35.2865V4.656C35.2865 5.28 35.4385 5.88 35.7425 6.456C36.0625 7.016 36.4945 7.48 37.0385 7.848C37.5985 8.2 38.2305 8.4 38.9345 8.448L43.6145 1.2H46.2065L41.3345 8.592C42.3905 8.752 43.2865 9.096 44.0225 9.624C44.7585 10.152 45.3185 10.824 45.7025 11.64C46.0865 12.44 46.2785 13.344 46.2785 14.352V18H43.9745V14.184C43.9745 13.128 43.6225 12.256 42.9185 11.568C42.2145 10.864 41.2225 10.504 39.9425 10.488L35.0705 18H32.4785ZM55.8693 18.288C54.5733 18.288 53.4213 18.016 52.4133 17.472C51.4053 16.928 50.6133 16.144 50.0373 15.12C49.4773 14.096 49.1973 12.888 49.1973 11.496V1.2H51.5013V11.736C51.5013 12.552 51.6773 13.304 52.0293 13.992C52.3813 14.68 52.8853 15.232 53.5413 15.648C54.1973 16.048 54.9733 16.248 55.8693 16.248C56.7653 16.248 57.5413 16.048 58.1973 15.648C58.8533 15.232 59.3493 14.68 59.6853 13.992C60.0373 13.304 60.2133 12.552 60.2133 11.736V1.2H62.5173V11.496C62.5173 12.888 62.2293 14.096 61.6533 15.12C61.0933 16.144 60.3093 16.928 59.3013 17.472C58.3093 18.016 57.1653 18.288 55.8693 18.288ZM66.0254 18V15.96H73.2974C73.8574 15.96 74.3374 15.832 74.7374 15.576C75.1374 15.304 75.4494 14.96 75.6734 14.544C75.8974 14.128 76.0094 13.688 76.0094 13.224C76.0094 12.744 75.8974 12.304 75.6734 11.904C75.4654 11.488 75.1614 11.16 74.7614 10.92C74.3774 10.664 73.9054 10.536 73.3454 10.536H70.1774C69.2334 10.536 68.4014 10.344 67.6814 9.96C66.9614 9.56 66.3934 9.016 65.9774 8.328C65.5774 7.624 65.3774 6.832 65.3774 5.952C65.3774 5.056 65.5694 4.248 65.9534 3.528C66.3534 2.808 66.9054 2.24 67.6094 1.824C68.3294 1.408 69.1534 1.2 70.0814 1.2H77.2094V3.24H70.2974C69.7694 3.24 69.3054 3.368 68.9054 3.624C68.5054 3.864 68.2014 4.184 67.9934 4.584C67.7854 4.968 67.6814 5.384 67.6814 5.832C67.6814 6.264 67.7774 6.68 67.9694 7.08C68.1774 7.464 68.4734 7.776 68.8574 8.016C69.2574 8.256 69.7134 8.376 70.2254 8.376H73.4654C74.4734 8.376 75.3374 8.576 76.0574 8.976C76.7774 9.376 77.3294 9.92 77.7134 10.608C78.0974 11.296 78.2894 12.08 78.2894 12.96C78.2894 13.936 78.0894 14.808 77.6894 15.576C77.3054 16.328 76.7534 16.92 76.0334 17.352C75.3134 17.784 74.4894 18 73.5614 18H66.0254Z" fill="white"/>
</svg>
