<svg width="215" height="30" viewBox="0 0 215 30" fill="none" xmlns="http://www.w3.org/2000/svg">
<g clip-path="url(#clip0_53_53)">
<path d="M16.5323 0.315593C15.54 0.89731 15.355 1.3793 15.2877 3.50673L15.2373 5.41808L13.9591 5.80036C12.126 6.36545 10.1919 7.54551 8.74557 8.99149C7.28241 10.4541 6.39107 11.9333 5.75199 13.8281L5.28108 15.2574H3.59929C1.58115 15.2574 0.773888 15.5732 0.269351 16.504C-0.167915 17.2685 -0.0501894 18.5317 0.521619 19.1466C1.24479 19.8945 1.74933 20.0607 3.61611 20.0607H5.34836L5.63426 21.0414C6.7947 25.0635 10.091 28.3378 14.2282 29.5843C15.5232 29.9832 18.399 30.1161 19.879 29.8668C24.8235 29.0026 28.7421 25.3294 29.9698 20.4098C30.5584 17.9832 30.1211 14.3599 28.9439 12.0829C27.3966 9.05797 24.218 6.4818 20.9722 5.65077L20.1313 5.43471V3.60645C20.1313 2.09399 20.0808 1.69509 19.7781 1.2131C19.0718 0.0662851 17.6254 -0.349227 16.5323 0.315593ZM20.434 10.4873C23.8144 11.7173 26.0512 15.5732 25.3448 18.9472C24.5712 22.7699 21.5608 25.2131 17.6927 25.2131C14.3123 25.2131 11.6383 23.3516 10.4274 20.1771C9.92282 18.7976 9.92282 16.5206 10.4274 15.1245C11.9746 11.0524 16.3641 8.99149 20.434 10.4873Z" fill="white"/>
<path d="M16.0443 12.9806C14.7829 13.3961 13.303 14.892 12.933 16.1219C12.3443 18.1163 12.7311 19.6621 14.1943 21.1247C15.0016 21.9224 15.4052 22.1717 16.2125 22.3878C18.5838 23.0693 21.0056 22.0222 22.166 19.8116C22.536 19.1136 22.6033 18.7147 22.6033 17.6676C22.6033 16.1884 22.1324 15.0582 21.1233 14.1274C19.7947 12.8643 17.7429 12.4155 16.0443 12.9806ZM18.4829 16.6704C19.122 17.2188 19.122 18.0997 18.4997 18.6482C18.2474 18.8476 17.8774 19.0471 17.6756 19.0471C17.2047 19.0471 16.2965 18.133 16.2965 17.6676C16.2965 17.2022 17.2047 16.2881 17.6756 16.2881C17.8774 16.2881 18.2474 16.4543 18.4829 16.6704ZM171.492 0.216067C170.634 0.598339 170.214 1.32964 170.214 2.44321C170.214 3.30748 170.264 3.45706 170.803 3.9723C171.862 5.03601 173.359 4.96953 174.385 3.82272C175.343 2.72576 175.007 1.08033 173.695 0.332411C172.938 -0.0664812 172.266 -0.0997222 171.492 0.216067ZM56.609 4.35457V7.36288H53.3127V11.4848H56.5922L56.6427 18.133C56.6931 24.2493 56.7268 24.8476 57.0295 25.3961C57.5508 26.3767 58.3749 27.0914 59.3672 27.4571C60.4603 27.8726 63.5044 28.0886 65.3375 27.9058L66.498 27.7729V23.2521L64.9339 23.3019C63.4707 23.3518 63.353 23.3352 62.9326 22.9197L62.4953 22.4875V11.4848H66.5148L66.4643 9.45706L66.4307 7.44598L64.4798 7.39612L62.5121 7.34626L62.4785 4.38781L62.428 1.42936L59.5354 1.3795L56.609 1.34626V4.35457ZM109.417 14.5762V27.7895H115.32V1.34626H109.417V14.5762ZM4.92765 4.18837C4.0363 4.63712 3.63267 5.28532 3.63267 6.21607C3.63267 7.2964 4.01948 7.96122 4.84356 8.39335C6.00399 8.97507 6.96261 8.759 7.87078 7.71191C8.77894 6.6482 8.32486 4.85319 6.97943 4.20499C6.25626 3.85596 5.61718 3.85596 4.92765 4.18837ZM41.7252 7.01385C37.1676 7.57895 34.6112 10.1717 34.9476 13.8615C35.0485 15.0914 35.5362 16.0388 36.478 16.8698C37.5375 17.8338 38.6307 18.2659 42.4147 19.1801C46.1651 20.1274 47.0901 20.5097 47.4937 21.2742C48.4019 22.9695 46.3501 24.5152 43.5415 24.2992C41.6579 24.1496 40.5311 23.3352 40.1611 21.9224L40.0266 21.3407L37.2685 21.2909L34.5271 21.241L34.628 22.2216C34.7626 23.5512 35.4521 24.8144 36.5453 25.8449C38.3448 27.5235 40.3798 28.1717 43.962 28.1884C46.6192 28.205 48.0655 27.9723 49.6128 27.241C52.1859 26.0609 53.5145 24.0332 53.5145 21.3407C53.5145 19.7618 53.2286 18.964 52.3709 18.0166C51.1096 16.6205 49.6296 16.0222 45.0551 15.0083C41.8429 14.3103 40.8339 13.7285 40.8339 12.615C40.8339 11.4183 41.6916 10.8864 43.6929 10.8864C45.8456 10.8864 47.006 11.5346 47.3424 12.8809L47.4601 13.3629H52.9764L52.8755 12.6316C52.4887 10.0554 50.4369 8.06094 47.4096 7.2964C46.081 6.96399 43.2724 6.83103 41.7252 7.01385Z" fill="white"/>
<path d="M75.0246 7.03046C73.6288 7.21328 72.1656 7.795 70.8202 8.67589C67.8602 10.6039 66.2962 13.7451 66.2962 17.7507C66.2962 22.8033 68.9702 26.5429 73.5447 27.8726C75.0078 28.3047 78.5059 28.3047 79.9523 27.8726C82.66 27.0748 84.3922 25.662 85.6031 23.3019C86.6963 21.1413 86.7635 21.241 83.8036 21.241H81.2977L81.0455 21.7064C80.6755 22.4044 79.9187 23.0692 79.0273 23.4515C78.1191 23.867 76.101 23.9335 75.0078 23.6011C73.5279 23.169 72.4179 21.6731 72.1824 19.8282L72.0815 18.9972L79.4309 18.964L86.7635 18.9141L86.7299 17.3684C86.5449 10.5374 81.5164 6.08309 75.0246 7.03046ZM78.6237 11.7008C79.5487 12.1828 80.44 13.4792 80.6923 14.7091L80.81 15.2576H72.1151L72.2833 14.5263C72.6365 12.9972 73.7297 11.8836 75.2937 11.4681C76.0337 11.2521 78.0519 11.4183 78.6237 11.7008ZM96.6356 6.99722C92.3975 7.66204 89.2694 10.554 88.1426 14.8421C87.7894 16.1385 87.8062 19.1302 88.1594 20.5762C89.0171 24.1994 91.5062 26.8421 95.0884 27.8726C96.5684 28.3047 100.083 28.3213 101.496 27.8892C103.817 27.2077 105.431 26.1108 106.508 24.4654C106.995 23.7341 108.021 21.6066 108.021 21.3241C108.021 21.2908 106.861 21.2576 105.431 21.2576C102.993 21.2576 102.825 21.2742 102.724 21.6066C102.556 22.1385 101.008 23.4016 100.235 23.6343C99.8647 23.7507 98.9733 23.8338 98.267 23.8338C95.6097 23.8338 94.1298 22.554 93.7598 19.928L93.6421 19.0305H108.358V17.867C108.341 12.9474 105.515 8.59278 101.479 7.36287C100.235 6.98059 97.897 6.81439 96.6356 6.99722ZM100.151 11.7008C101.109 12.1994 101.883 13.2798 102.253 14.6094L102.421 15.2576H93.7766V14.8587C93.7766 14.6426 93.9784 14.0277 94.2643 13.5125C94.7689 12.5152 95.7443 11.7174 96.7534 11.4515C97.5606 11.2521 99.562 11.4183 100.151 11.7008ZM123.427 7.03046C120.298 7.44597 117.994 8.87533 117.103 10.9197C116.683 11.9003 116.733 13.928 117.221 15.0249C117.708 16.1385 118.818 17.169 120.248 17.8338C120.837 18.1163 122.703 18.6482 124.368 19.0305C126.033 19.4127 127.715 19.8449 128.136 19.9944C129.817 20.626 130.473 22.421 129.414 23.4848C128.758 24.1163 127.362 24.5152 125.714 24.5152C123.309 24.5152 121.795 23.6676 121.324 22.0886L121.106 21.3407L118.701 21.2908L116.296 21.241L116.413 22.1551C116.783 24.964 119.003 27.1911 122.249 27.9723C123.494 28.2881 127.429 28.2881 128.674 27.9723C131.281 27.3407 133.349 25.8615 134.19 24.0332C134.779 22.7534 134.795 20.6759 134.207 19.446C133.164 17.2521 131.516 16.4044 125.966 15.2244C123.628 14.7257 122.502 14.2936 121.963 13.6787C121.492 13.1136 121.408 12.3823 121.728 11.7673C122.064 11.169 123.359 10.7202 124.923 10.7036C127.177 10.687 128.455 11.3185 128.859 12.698L129.044 13.3462H134.039L133.921 12.698C133.601 10.8366 132.205 8.94181 130.44 7.99444C128.825 7.11356 125.848 6.71467 123.427 7.03046ZM143.608 7.01384C139.992 7.57893 137.015 10.3213 135.805 14.2271C135.283 15.8726 135.25 19.3462 135.72 21.0748C136.746 24.831 139.303 27.2908 143.003 28.072C145.374 28.5706 148.233 28.1884 150.419 27.0914C151.378 26.6094 153.093 24.9972 153.648 24.0665C153.985 23.518 154.758 21.5734 154.758 21.3075C154.758 21.2908 153.749 21.2576 152.522 21.2576H150.285L149.898 22.0221C149.393 23.036 148.182 24.0831 147.207 24.3158C146.215 24.5485 144.382 24.5485 143.625 24.2992C142.212 23.8338 140.9 22.554 140.497 21.2244C140.396 20.892 140.261 20.2271 140.177 19.7285L140.043 18.831H154.926L155.027 18.3823C155.179 17.7507 154.994 15.5235 154.657 14.3102C153.783 11.036 151.21 8.24375 148.216 7.32963C146.888 6.96397 144.937 6.81439 143.608 7.01384ZM147.476 11.2354C147.93 11.4349 148.502 11.8836 148.754 12.1994C149.326 12.8643 149.948 14.2105 150.133 15.1246L150.251 15.7728H140.11L140.194 15.0249C140.362 13.5457 141.758 11.651 143.07 11.1191C144.499 10.5374 146.181 10.5872 147.476 11.2354ZM185.064 6.96397C181.112 7.47921 177.984 10.3047 176.823 14.3933C176.336 16.1385 176.319 19.2798 176.79 21.1246C177.429 23.5845 178.69 25.3795 180.591 26.6593C182.424 27.8559 183.618 28.1884 186.191 28.205C188.562 28.2216 189.487 28.0554 191.119 27.241C192.514 26.5595 193.389 25.8116 194.264 24.6149C194.903 23.7174 195.744 21.9224 195.744 21.4404C195.744 21.3407 194.835 21.2742 193.54 21.2742H191.32L190.816 22.2216C189.958 23.8172 188.63 24.5318 186.477 24.5318C184.492 24.5152 183.197 23.9003 182.239 22.4875C181.633 21.6066 181.162 20.277 181.162 19.4127V18.8643H196.097V17.3518C196.097 10.9695 191.001 6.19943 185.064 6.96397ZM188.209 11.0526C189.639 11.6343 190.85 13.2964 191.152 15.0415L191.27 15.7728H181.162V15.3407C181.162 14.626 181.818 13.1136 182.474 12.349C183.82 10.8033 186.275 10.2382 188.209 11.0526ZM203.967 7.01384C200.638 7.47921 198.317 8.89195 197.493 10.9529C197.173 11.7008 197.173 14.0111 197.493 14.759C198.148 16.3878 199.46 17.518 201.394 18.1828C201.966 18.3823 203.631 18.7978 205.094 19.1302C208.912 19.9944 210.039 20.5595 210.274 21.7396C210.627 23.6011 208.895 24.6482 205.733 24.4986C203.211 24.3823 202.033 23.5845 201.579 21.7396L201.478 21.2742H196.753L196.87 22.2382C197.207 24.9141 199.057 26.9252 202.067 27.8393C203.076 28.1551 203.732 28.2216 205.733 28.2216C208.475 28.2382 209.467 28.0554 211.317 27.1911C212.208 26.7756 212.83 26.3269 213.503 25.6122C214.714 24.3158 215.101 23.1856 215 21.3241C214.916 19.795 214.546 18.9806 213.52 17.9834C212.376 16.8365 211.065 16.3213 207.213 15.457C204.119 14.7756 203.312 14.4931 202.588 13.8781C202.084 13.446 202 13.2465 202 12.6482C202 11.8338 202.202 11.5845 203.211 11.0859C204.052 10.6537 206.658 10.6537 207.684 11.0859C208.542 11.4349 209.198 12.1496 209.366 12.8809L209.484 13.3961H214.361L214.243 12.5651C213.89 10.0554 211.569 7.82824 208.626 7.2299C207.331 6.93073 205.178 6.84763 203.967 7.01384ZM170.332 7.46259C170.264 7.52907 170.214 12.1329 170.214 17.7008V27.7895H174.906L174.873 17.6177L174.822 7.46259L172.636 7.41273C171.425 7.37949 170.399 7.41273 170.332 7.46259ZM156.137 17.6676V27.7895H160.796L160.863 21.4737L160.914 15.1579L161.351 14.3102C162.158 12.7645 163.874 12.0166 167.136 11.7174L168.297 11.6177V7.47921L166.43 7.56231C164.26 7.66204 163.15 8.01107 161.62 9.07478L160.645 9.7396V7.52907H156.121V17.6676H156.137Z" fill="white"/>
</g>
<defs>
<clipPath id="clip0_53_53">
<rect width="215" height="30" fill="white"/>
</clipPath>
</defs>
</svg>
