<svg width="30" height="30" viewBox="0 0 30 30" fill="none" xmlns="http://www.w3.org/2000/svg">
<path d="M26.25 26.25H3.75C3.75296 23.9112 4.48335 21.6312 5.83991 19.7262C7.19647 17.8212 9.11198 16.3855 11.3209 15.6183C10.1761 14.8327 9.31273 13.7012 8.85709 12.3895C8.40146 11.0777 8.37747 9.65459 8.78863 8.32824C9.19979 7.00189 10.0245 5.84197 11.1422 5.01819C12.2598 4.1944 13.6117 3.75 15 3.75C16.3883 3.75 17.7402 4.1944 18.8578 5.01819C19.9755 5.84197 20.8002 7.00189 21.2114 8.32824C21.6225 9.65459 21.5985 11.0777 21.1429 12.3895C20.6873 13.7012 19.8239 14.8327 18.6791 15.6183C20.888 16.3855 22.8035 17.8212 24.1601 19.7262C25.5166 21.6312 26.247 23.9112 26.25 26.25Z" fill="white"/>
</svg>
