<svg width="41" height="40" viewBox="0 0 41 40" fill="none" xmlns="http://www.w3.org/2000/svg">
<rect x="0.527618" width="39.7093" height="40" rx="10" fill="black" fill-opacity="0.41"/>
<path fill-rule="evenodd" clip-rule="evenodd" d="M11.7083 27.0568C11.3189 26.9408 10.9635 26.7343 10.6723 26.4549C10.3811 26.1754 10.1625 25.8312 10.035 25.4512C9.30628 23.4874 9.09037 15.2869 10.4938 13.6681C10.9609 13.1414 11.6203 12.8172 12.329 12.7658C16.0939 12.3677 27.726 12.4208 29.0619 12.8985C29.4377 13.0183 29.781 13.2203 30.0661 13.4891C30.3512 13.758 30.5707 14.0868 30.7082 14.451C31.5044 16.4812 31.5314 23.8589 30.6003 25.8095C30.3533 26.3173 29.9398 26.7285 29.4263 26.9772C28.0229 27.6672 13.5705 27.6539 11.7083 27.0568V27.0568ZM17.6862 23.2087L24.4334 19.7587L17.6862 16.2821V23.2087Z" fill="white"/>
</svg>
