<svg width="24" height="24" viewBox="0 0 24 24" fill="none" xmlns="http://www.w3.org/2000/svg">
<path d="M16.5 22H7.49996C7.37621 21.9984 7.25725 21.9519 7.16526 21.8691C7.07326 21.7863 7.01452 21.6729 6.99996 21.55L5.49997 5.55C5.49229 5.40822 5.53876 5.26882 5.62997 5.16C5.67753 5.10959 5.73487 5.0694 5.79849 5.04189C5.8621 5.01438 5.93066 5.00013 5.99997 5H18C18.0693 5.00013 18.1378 5.01438 18.2014 5.04189C18.2651 5.0694 18.3224 5.10959 18.37 5.16C18.417 5.21276 18.4528 5.27455 18.4751 5.34161C18.4975 5.40866 18.5059 5.47957 18.5 5.55L17 21.55C16.9854 21.6729 16.9267 21.7863 16.8347 21.8691C16.7427 21.9519 16.6237 21.9984 16.5 22ZM7.99996 21H16.09L17.49 6H6.54997L7.99996 21Z" fill="white"/>
<path d="M19 6H5C4.86739 6 4.74021 5.94732 4.64645 5.85355C4.55268 5.75979 4.5 5.63261 4.5 5.5C4.5 5.36739 4.55268 5.24021 4.64645 5.14645C4.74021 5.05268 4.86739 5 5 5H19C19.1326 5 19.2598 5.05268 19.3536 5.14645C19.4473 5.24021 19.5 5.36739 19.5 5.5C19.5 5.63261 19.4473 5.75979 19.3536 5.85355C19.2598 5.94732 19.1326 6 19 6Z" fill="white"/>
<path d="M14.5 3H9.5C9.36739 3 9.24021 2.94732 9.14645 2.85355C9.05268 2.75979 9 2.63261 9 2.5C9 2.36739 9.05268 2.24021 9.14645 2.14645C9.24021 2.05268 9.36739 2 9.5 2H14.5C14.6326 2 14.7598 2.05268 14.8536 2.14645C14.9473 2.24021 15 2.36739 15 2.5C15 2.63261 14.9473 2.75979 14.8536 2.85355C14.7598 2.94732 14.6326 3 14.5 3Z" fill="white"/>
<path d="M10.25 17.22C10.1174 17.22 9.99021 17.1674 9.89645 17.0736C9.80268 16.9798 9.75 16.8526 9.75 16.72V10.28C9.75 10.1474 9.80268 10.0202 9.89645 9.92648C9.99021 9.83271 10.1174 9.78003 10.25 9.78003C10.3826 9.78003 10.5098 9.83271 10.6036 9.92648C10.6973 10.0202 10.75 10.1474 10.75 10.28V16.72C10.75 16.8526 10.6973 16.9798 10.6036 17.0736C10.5098 17.1674 10.3826 17.22 10.25 17.22Z" fill="white"/>
<path d="M13.75 17.22C13.6174 17.22 13.4902 17.1674 13.3964 17.0736C13.3027 16.9798 13.25 16.8526 13.25 16.72V10.28C13.25 10.1474 13.3027 10.0202 13.3964 9.92648C13.4902 9.83271 13.6174 9.78003 13.75 9.78003C13.8826 9.78003 14.0098 9.83271 14.1036 9.92648C14.1973 10.0202 14.25 10.1474 14.25 10.28V16.72C14.25 16.8526 14.1973 16.9798 14.1036 17.0736C14.0098 17.1674 13.8826 17.22 13.75 17.22Z" fill="white"/>
</svg>
