<svg width="176" height="52" viewBox="0 0 176 52" fill="none" xmlns="http://www.w3.org/2000/svg">
<path d="M37.3446 17.4739H42.6084L43.8946 13.2006L55.0296 6.83243L56.2205 3.05911H50.9448L50.385 4.95172L42.144 9.60587L36.9635 5.13027L37.5947 3.04721H32.3309L31.2591 6.61817L38.6665 13.0935L37.3446 17.4739ZM81.6344 11.6175L79.8838 17.462H103.702L104.893 13.6649H86.7553L94.7225 10.3201L88.494 6.85624H106.917L108.108 3.04721H84.2901L82.4919 8.73694L85.0523 10.201L81.6344 11.6175ZM11.6568 3.05911H6.44061L2.11762 17.4739H7.33379L11.6568 3.05911ZM29.7347 3.05911H24.9711L23.3753 8.33223H11.4662L10.2753 12.1413H22.1844L20.5886 17.4501H25.9357L30.223 3.05911H29.7347ZM62.0917 6.85624H75.406L75.0368 8.04656L70.559 9.92726H62.5323L61.3414 13.7244H71.3569L79.5622 10.2725L81.7892 3.05911H57.9711L53.6481 17.4739H58.9L62.0917 6.85624ZM107.62 12.6531L106.167 17.4739H111.419C111.419 17.4739 112.312 14.4743 112.527 13.8196C110.943 13.3792 109.299 12.9983 107.62 12.6531ZM124.519 13.5458L132.093 10.4629L134.308 3.05911H110.49L108.227 10.6296C113.773 10.7879 119.263 11.7708 124.519 13.5458ZM114.611 6.85624H127.913C127.746 7.41569 127.58 7.97514 127.508 8.2013L123.423 9.92726H113.682C113.884 9.28449 114.492 7.26094 114.611 6.85624Z" fill="#E31837"/>
<path d="M157.626 45.8273C154.053 35.2335 148.647 27.7107 142.514 22.3899C148.004 17.0454 151.755 9.79633 152.434 0C152.434 0 150.195 9.74872 138.143 19.0451C120.279 6.86815 98.843 10.332 98.843 10.332C111.292 11.2182 123.305 15.2795 133.737 22.1281C122.471 29.27 104.607 35.4596 76.4659 35.662C76.4659 35.662 116.754 41.7326 138.691 25.6157C146.135 31.1965 152.543 38.037 157.626 45.8273Z" fill="#B3B3B3"/>
</svg>
