<svg width="52" height="13" viewBox="0 0 52 13" fill="none" xmlns="http://www.w3.org/2000/svg">
<path d="M7.72 12.192C7.12267 12.192 6.59467 12.0587 6.136 11.792C5.688 11.5147 5.336 11.1413 5.08 10.672C4.824 10.2027 4.696 9.67467 4.696 9.088V3.504C4.696 3.216 4.62667 2.95467 4.488 2.72C4.34933 2.48533 4.16267 2.29867 3.928 2.16C3.69333 2.02133 3.43733 1.952 3.16 1.952C2.88267 1.952 2.62667 2.02133 2.392 2.16C2.168 2.29867 1.98667 2.48533 1.848 2.72C1.72 2.95467 1.656 3.216 1.656 3.504V12H0.12V3.712C0.12 3.12533 0.248 2.59733 0.504 2.128C0.76 1.65867 1.11733 1.29067 1.576 1.024C2.03467 0.746666 2.56267 0.608 3.16 0.608C3.768 0.608 4.30133 0.746666 4.76 1.024C5.21867 1.29067 5.576 1.65867 5.832 2.128C6.088 2.59733 6.216 3.12533 6.216 3.712V9.296C6.216 9.584 6.28533 9.84533 6.424 10.08C6.56267 10.3147 6.744 10.5013 6.968 10.64C7.20267 10.7787 7.45333 10.848 7.72 10.848C7.98667 10.848 8.232 10.7787 8.456 10.64C8.68 10.5013 8.856 10.3147 8.984 10.08C9.12267 9.84533 9.192 9.584 9.192 9.296V0.799999H10.728V9.088C10.728 9.67467 10.6 10.2027 10.344 10.672C10.088 11.1413 9.736 11.5147 9.288 11.792C8.84 12.0587 8.31733 12.192 7.72 12.192ZM15.7638 12C15.1451 12 14.5958 11.856 14.1158 11.568C13.6464 11.2693 13.2784 10.88 13.0118 10.4C12.7451 9.92 12.6118 9.39733 12.6118 8.832C12.6118 8.32 12.7291 7.84 12.9638 7.392C13.2091 6.944 13.5611 6.592 14.0198 6.336C13.5718 6.048 13.2304 5.69067 12.9958 5.264C12.7611 4.83733 12.6438 4.38933 12.6438 3.92C12.6438 3.344 12.7771 2.82133 13.0438 2.352C13.3211 1.88267 13.6944 1.50933 14.1638 1.232C14.6331 0.943999 15.1504 0.799999 15.7158 0.799999H20.1478V2.16H15.8918C15.5611 2.16 15.2678 2.24 15.0118 2.4C14.7558 2.56 14.5531 2.77333 14.4038 3.04C14.2544 3.296 14.1798 3.58933 14.1798 3.92C14.1798 4.22933 14.2544 4.512 14.4038 4.768C14.5638 5.024 14.7771 5.232 15.0438 5.392C15.3104 5.54133 15.6038 5.616 15.9238 5.616H19.5558V6.976H16.0358C15.6411 6.976 15.2998 7.06667 15.0118 7.248C14.7344 7.41867 14.5158 7.648 14.3558 7.936C14.2064 8.21333 14.1318 8.512 14.1318 8.832C14.1318 9.152 14.2064 9.45067 14.3558 9.728C14.5051 10.0053 14.7184 10.2293 14.9958 10.4C15.2731 10.56 15.5984 10.64 15.9718 10.64H20.1478V12H15.7638ZM21.319 12L24.695 6.832C24.119 6.69333 23.6017 6.45333 23.143 6.112C22.695 5.77067 22.3377 5.33333 22.071 4.8C21.8043 4.256 21.671 3.632 21.671 2.928V0.799999H23.191V3.104C23.191 3.52 23.2923 3.92 23.495 4.304C23.7083 4.67733 23.9963 4.98667 24.359 5.232C24.7323 5.46667 25.1537 5.6 25.623 5.632L28.743 0.799999H30.471L27.223 5.728C27.927 5.83467 28.5243 6.064 29.015 6.416C29.5057 6.768 29.879 7.216 30.135 7.76C30.391 8.29333 30.519 8.896 30.519 9.568V12H28.983V9.456C28.983 8.752 28.7483 8.17067 28.279 7.712C27.8097 7.24267 27.1483 7.00267 26.295 6.992L23.047 12H21.319ZM36.9129 12.192C36.0489 12.192 35.2809 12.0107 34.6089 11.648C33.9369 11.2853 33.4089 10.7627 33.0249 10.08C32.6515 9.39733 32.4649 8.592 32.4649 7.664V0.799999H34.0009V7.824C34.0009 8.368 34.1182 8.86933 34.3529 9.328C34.5875 9.78667 34.9235 10.1547 35.3609 10.432C35.7982 10.6987 36.3155 10.832 36.9129 10.832C37.5102 10.832 38.0275 10.6987 38.4649 10.432C38.9022 10.1547 39.2329 9.78667 39.4569 9.328C39.6915 8.86933 39.8089 8.368 39.8089 7.824V0.799999H41.3449V7.664C41.3449 8.592 41.1529 9.39733 40.7689 10.08C40.3955 10.7627 39.8729 11.2853 39.2009 11.648C38.5395 12.0107 37.7769 12.192 36.9129 12.192ZM43.6836 12V10.64H48.5316C48.905 10.64 49.225 10.5547 49.4916 10.384C49.7583 10.2027 49.9663 9.97333 50.1156 9.696C50.265 9.41867 50.3396 9.12533 50.3396 8.816C50.3396 8.496 50.265 8.20267 50.1156 7.936C49.977 7.65867 49.7743 7.44 49.5076 7.28C49.2516 7.10933 48.937 7.024 48.5636 7.024H46.4516C45.8223 7.024 45.2676 6.896 44.7876 6.64C44.3076 6.37333 43.929 6.01067 43.6516 5.552C43.385 5.08267 43.2516 4.55467 43.2516 3.968C43.2516 3.37067 43.3796 2.832 43.6356 2.352C43.9023 1.872 44.2703 1.49333 44.7396 1.216C45.2196 0.938666 45.769 0.799999 46.3876 0.799999H51.1396V2.16H46.5316C46.1796 2.16 45.8703 2.24533 45.6036 2.416C45.337 2.576 45.1343 2.78933 44.9956 3.056C44.857 3.312 44.7876 3.58933 44.7876 3.888C44.7876 4.176 44.8516 4.45333 44.9796 4.72C45.1183 4.976 45.3156 5.184 45.5716 5.344C45.8383 5.504 46.1423 5.584 46.4836 5.584H48.6436C49.3156 5.584 49.8916 5.71733 50.3716 5.984C50.8516 6.25067 51.2196 6.61333 51.4756 7.072C51.7316 7.53067 51.8596 8.05333 51.8596 8.64C51.8596 9.29067 51.7263 9.872 51.4596 10.384C51.2036 10.8853 50.8356 11.28 50.3556 11.568C49.8756 11.856 49.3263 12 48.7076 12H43.6836Z" fill="#B3B3B3"/>
</svg>
