<svg width="15" height="15" viewBox="0 0 15 15" fill="none" xmlns="http://www.w3.org/2000/svg">
<path d="M5.91572 11.6051C4.84459 11.6051 3.79752 11.2648 2.90691 10.6272C2.0163 9.98962 1.32215 9.08338 0.91225 8.0231C0.502347 6.96282 0.395097 5.79612 0.604064 4.67054C0.813031 3.54495 1.32883 2.51103 2.08623 1.69953C2.84363 0.88803 3.80862 0.33539 4.85917 0.111497C5.90972 -0.112396 6.99864 0.00251417 7.98823 0.441696C8.97782 0.880878 9.82364 1.62461 10.4187 2.57883C11.0138 3.53306 11.3314 4.65492 11.3314 5.80256C11.3299 7.34099 10.7588 8.81593 9.74351 9.90376C8.7282 10.9916 7.35159 11.6035 5.91572 11.6051ZM5.91572 1.09512C5.04675 1.09512 4.19729 1.37121 3.47476 1.88847C2.75224 2.40573 2.1891 3.14093 1.85656 4.0011C1.52401 4.86127 1.43701 5.80778 1.60653 6.72094C1.77606 7.63409 2.19451 8.47288 2.80897 9.13122C3.42343 9.78957 4.2063 10.2379 5.05857 10.4195C5.91085 10.6012 6.79426 10.508 7.59709 10.1517C8.39991 9.79537 9.0861 9.19201 9.56888 8.41787C10.0517 7.64374 10.3093 6.7336 10.3093 5.80256C10.3078 4.55458 9.8444 3.35818 9.02077 2.47573C8.19714 1.59327 7.08051 1.09678 5.91572 1.09512Z" fill="white"/>
<path d="M13.8796 14.9953C13.7448 14.9964 13.6151 14.9401 13.5189 14.8389L9.05229 10.0501C8.95644 9.94638 8.90298 9.80611 8.90366 9.66014C8.90435 9.51418 8.95912 9.37449 9.05594 9.27179C9.15275 9.1691 9.28367 9.11182 9.41991 9.11256C9.55614 9.11329 9.68652 9.17198 9.78236 9.27571L14.2417 14.0614C14.3145 14.1378 14.3643 14.2358 14.3847 14.3427C14.4051 14.4497 14.3953 14.5608 14.3563 14.6617C14.3174 14.7626 14.2512 14.8487 14.1663 14.909C14.0813 14.9693 13.9815 15.001 13.8796 15V14.9953Z" fill="white"/>
</svg>
