<svg width="20" height="20" viewBox="0 0 20 20" fill="none" xmlns="http://www.w3.org/2000/svg">
<path d="M10.0055 19.1021C9.92487 19.1057 9.84465 19.0883 9.77276 19.0515C9.45902 18.8794 2.05071 14.9425 0.512376 9.6899C-0.36812 6.70431 -0.115104 3.84017 1.28154 2.02858C1.77003 1.3763 2.40883 0.851647 3.1436 0.499237C3.87838 0.146827 4.68739 -0.0229142 5.50185 0.00444851C6.45826 -0.0374302 7.40425 0.217201 8.21041 0.733508C9.01658 1.24982 9.64354 2.00258 10.0055 2.88883C10.3724 2.00826 11.0014 1.26196 11.8071 0.751346C12.6129 0.240732 13.5563 -0.00944439 14.5092 0.0348104C15.3237 0.00744767 16.1327 0.177189 16.8675 0.529599C17.6022 0.882009 18.241 1.40666 18.7295 2.05894C20.0857 3.87053 20.3792 6.73467 19.4987 9.72026C17.9604 14.9729 10.552 18.9098 10.2383 19.0818C10.1637 19.1083 10.0836 19.1152 10.0055 19.1021V19.1021ZM5.50185 1.04687C4.84719 1.01586 4.19479 1.14425 3.6007 1.42102C3.00662 1.69779 2.48861 2.11466 2.09119 2.63581C0.927322 4.19439 0.694547 6.68407 1.48396 9.40652C2.75916 13.7584 8.74045 17.3107 10.0055 18.0192C11.2706 17.3107 17.2519 13.7483 18.5271 9.40652C19.3165 6.72455 19.0837 4.19439 17.9199 2.63581C17.5225 2.11466 17.0044 1.69779 16.4104 1.42102C15.8163 1.14425 15.1639 1.01586 14.5092 1.04687C10.7241 1.04687 10.5217 4.85223 10.5116 5.01416C10.5116 5.14837 10.4582 5.27708 10.3634 5.37198C10.2685 5.46688 10.1397 5.5202 10.0055 5.5202C9.87476 5.5203 9.74902 5.46977 9.65468 5.37921C9.56034 5.28864 9.50473 5.16507 9.4995 5.0344C9.48938 4.85223 9.26672 1.04687 5.50185 1.04687Z" fill="white"/>
</svg>
