<svg width="41" height="40" viewBox="0 0 41 40" fill="none" xmlns="http://www.w3.org/2000/svg">
<rect x="0.527588" width="39.7093" height="40" rx="10" fill="black" fill-opacity="0.41"/>
<path fill-rule="evenodd" clip-rule="evenodd" d="M11.7082 27.0568C11.3188 26.9408 10.9635 26.7343 10.6723 26.4549C10.381 26.1754 10.1624 25.8312 10.0349 25.4512C9.30622 23.4874 9.09031 15.2869 10.4937 13.6681C10.9608 13.1414 11.6203 12.8172 12.3289 12.7658C16.0938 12.3677 27.7259 12.4208 29.0619 12.8985C29.4376 13.0183 29.7809 13.2203 30.066 13.4891C30.3511 13.758 30.5707 14.0868 30.7082 14.451C31.5043 16.4812 31.5313 23.8589 30.6002 25.8095C30.3532 26.3173 29.9397 26.7285 29.4262 26.9772C28.0228 27.6672 13.5704 27.6539 11.7082 27.0568V27.0568ZM17.6862 23.2087L24.4333 19.7587L17.6862 16.2821V23.2087Z" fill="white"/>
</svg>
